<svg width="416" height="244" viewBox="0 0 416 244" fill="none" xmlns="http://www.w3.org/2000/svg">
<line x1="339" y1="219" x2="411" y2="219" stroke="white" stroke-width="4"/>
<path d="M70.6133 24.4131L71.4189 57.5186H68.416C67 49.2178 63.5088 42.5527 57.9424 37.5234C52.4248 32.4453 46.4434 29.9062 39.998 29.9062C35.0176 29.9062 31.0625 31.249 28.1328 33.9346C25.252 36.5713 23.8115 39.623 23.8115 43.0898C23.8115 45.2871 24.3242 47.2402 25.3496 48.9492C26.7656 51.2441 29.0361 53.5146 32.1611 55.7607C34.4561 57.3721 39.7539 60.2285 48.0547 64.3301C59.6758 70.043 67.5127 75.4385 71.5654 80.5166C75.5693 85.5947 77.5713 91.4053 77.5713 97.9482C77.5713 106.249 74.3242 113.402 67.8301 119.408C61.3848 125.365 53.1816 128.344 43.2207 128.344C40.0957 128.344 37.1416 128.026 34.3584 127.392C31.5752 126.757 28.084 125.561 23.8848 123.803C21.541 122.826 19.6123 122.338 18.0986 122.338C16.8291 122.338 15.4863 122.826 14.0703 123.803C12.6543 124.779 11.5068 126.269 10.6279 128.271H7.91797V90.7705H10.6279C12.7764 101.317 16.9023 109.374 23.0059 114.94C29.1582 120.458 35.7744 123.217 42.8545 123.217C48.3232 123.217 52.6689 121.728 55.8916 118.749C59.1631 115.771 60.7988 112.304 60.7988 108.349C60.7988 106.005 60.1641 103.734 58.8945 101.537C57.6738 99.3398 55.7939 97.2646 53.2549 95.3115C50.7158 93.3096 46.2236 90.7217 39.7783 87.5479C30.7451 83.1045 24.251 79.3203 20.2959 76.1953C16.3408 73.0703 13.2891 69.5791 11.1406 65.7217C9.04102 61.8643 7.99121 57.6162 7.99121 52.9775C7.99121 45.0674 10.8965 38.3291 16.707 32.7627C22.5176 27.1963 29.8418 24.4131 38.6797 24.4131C41.9023 24.4131 45.0273 24.8037 48.0547 25.585C50.3496 26.1709 53.1328 27.2695 56.4043 28.8809C59.7246 30.4434 62.0439 31.2246 63.3623 31.2246C64.6318 31.2246 65.6328 30.834 66.3652 30.0527C67.0977 29.2715 67.7812 27.3916 68.416 24.4131H70.6133ZM146.053 97.7285H110.97L106.795 107.396C105.428 110.619 104.744 113.28 104.744 115.38C104.744 118.163 105.867 120.214 108.113 121.532C109.432 122.313 112.679 122.899 117.854 123.29V126H84.8223V123.29C88.3867 122.753 91.3164 121.288 93.6113 118.896C95.9062 116.454 98.7383 111.449 102.107 103.881L137.63 24.6328H139.021L174.837 106.078C178.255 113.793 181.062 118.651 183.26 120.653C184.92 122.167 187.264 123.046 190.291 123.29V126H142.244V123.29H144.222C148.079 123.29 150.789 122.753 152.352 121.679C153.426 120.897 153.963 119.774 153.963 118.31C153.963 117.431 153.816 116.527 153.523 115.6C153.426 115.16 152.693 113.329 151.326 110.106L146.053 97.7285ZM143.562 92.3086L128.768 58.1045L113.533 92.3086H143.562ZM295.54 24.4131V59.4229H292.83C289.559 49.8525 284.651 42.5771 278.108 37.5967C271.565 32.6162 264.412 30.126 256.648 30.126C249.227 30.126 243.05 32.2256 238.118 36.4248C233.187 40.5752 229.695 46.3857 227.645 53.8564C225.594 61.3271 224.568 68.9932 224.568 76.8545C224.568 86.376 225.691 94.7256 227.938 101.903C230.184 109.081 233.797 114.354 238.777 117.724C243.807 121.093 249.764 122.777 256.648 122.777C259.041 122.777 261.482 122.533 263.973 122.045C266.512 121.508 269.1 120.751 271.736 119.774V99.1201C271.736 95.2139 271.468 92.6992 270.931 91.5762C270.394 90.4043 269.271 89.3545 267.562 88.4268C265.901 87.499 263.875 87.0352 261.482 87.0352H258.919V84.3252H307.186V87.0352C303.523 87.2793 300.96 87.792 299.495 88.5732C298.079 89.3057 296.98 90.5508 296.199 92.3086C295.76 93.2363 295.54 95.5068 295.54 99.1201V119.774C289.192 122.606 282.576 124.73 275.691 126.146C268.855 127.611 261.751 128.344 254.378 128.344C244.954 128.344 237.117 127.074 230.867 124.535C224.666 121.947 219.173 118.578 214.388 114.428C209.651 110.229 205.94 105.517 203.255 100.292C199.837 93.5537 198.128 86.0098 198.128 77.6602C198.128 62.7188 203.377 50.0967 213.875 39.7939C224.373 29.4912 237.581 24.3398 253.499 24.3398C258.431 24.3398 262.874 24.7305 266.829 25.5117C268.978 25.9023 272.444 27.0254 277.229 28.8809C282.063 30.6875 284.92 31.5908 285.799 31.5908C287.166 31.5908 288.436 31.1025 289.607 30.126C290.779 29.1006 291.854 27.1963 292.83 24.4131H295.54ZM349.666 32.3965V72.8262H351.644C357.942 72.8262 362.508 70.8486 365.34 66.8936C368.172 62.9385 369.979 57.1035 370.76 49.3887H373.543V101.391H370.76C370.174 95.7266 368.929 91.0879 367.024 87.4746C365.169 83.8613 362.996 81.4443 360.506 80.2236C358.016 78.9541 354.402 78.3193 349.666 78.3193V106.298C349.666 111.767 349.886 115.111 350.325 116.332C350.813 117.553 351.692 118.554 352.962 119.335C354.231 120.116 356.282 120.507 359.114 120.507H365.047C374.324 120.507 381.746 118.358 387.312 114.062C392.928 109.765 396.956 103.222 399.397 94.4326H402.107L397.64 126H311.8V123.29H315.096C317.977 123.29 320.296 122.777 322.054 121.752C323.323 121.068 324.3 119.896 324.983 118.236C325.521 117.064 325.789 113.988 325.789 109.008V43.6758C325.789 39.1836 325.667 36.4248 325.423 35.3994C324.935 33.6904 324.031 32.3721 322.713 31.4443C320.857 30.0771 318.318 29.3936 315.096 29.3936H311.8V26.6836H394.93V56.0537H392.146C390.73 48.876 388.729 43.7246 386.141 40.5996C383.602 37.4746 379.988 35.1797 375.301 33.7148C372.566 32.8359 367.439 32.3965 359.92 32.3965H349.666Z" fill="white"/>
<path d="M5.65648 154.598H25.4807V155.646H24.4895C22.998 155.646 21.969 155.806 21.4026 156.127C20.855 156.429 20.4586 156.854 20.2131 157.401C19.9866 157.949 19.8733 159.318 19.8733 161.508V180.312C19.8733 183.749 20.1282 186.024 20.6379 187.138C21.1666 188.252 22.0256 189.177 23.2151 189.913C24.4045 190.649 25.9055 191.018 27.718 191.018C29.7948 191.018 31.5601 190.555 33.0139 189.63C34.4866 188.686 35.5816 187.393 36.2991 185.75C37.0354 184.107 37.4035 181.247 37.4035 177.169V161.508C37.4035 159.79 37.2242 158.562 36.8655 157.826C36.5067 157.09 36.0536 156.58 35.5061 156.297C34.6565 155.863 33.4576 155.646 31.9094 155.646V154.598H45.1916V155.646H44.3987C43.3225 155.646 42.4257 155.863 41.7082 156.297C40.9908 156.731 40.4716 157.382 40.1506 158.251C39.9052 158.855 39.7825 159.941 39.7825 161.508V176.093C39.7825 180.605 39.4804 183.862 38.8762 185.863C38.2909 187.865 36.8466 189.705 34.5432 191.386C32.2398 193.066 29.0963 193.906 25.1125 193.906C21.7896 193.906 19.2219 193.463 17.4094 192.575C14.9361 191.367 13.1897 189.819 12.1702 187.931C11.1506 186.043 10.6409 183.503 10.6409 180.312V161.508C10.6409 159.299 10.5181 157.93 10.2727 157.401C10.0272 156.854 9.60244 156.42 8.99828 156.099C8.39411 155.778 7.28018 155.627 5.65648 155.646V154.598ZM65.8745 154.598L84.8208 178.415V161.904C84.8208 159.601 84.4904 158.043 83.8296 157.231C82.9234 156.136 81.4035 155.608 79.27 155.646V154.598H91.9575V155.646C90.3338 155.853 89.2388 156.127 88.6724 156.467C88.1249 156.788 87.6906 157.326 87.3696 158.081C87.0676 158.817 86.9165 160.092 86.9165 161.904V193.878H85.9536L59.9839 161.904V186.316C59.9839 188.525 60.4842 190.017 61.4849 190.791C62.5044 191.565 63.6655 191.952 64.9683 191.952H65.8745V193H52.2525V191.952C54.367 191.933 55.8397 191.499 56.6704 190.649C57.5012 189.8 57.9165 188.355 57.9165 186.316V159.214L57.0952 158.194C56.2834 157.175 55.5659 156.505 54.9429 156.184C54.3198 155.863 53.423 155.683 52.2525 155.646V154.598H65.8745ZM119.805 191.952V193H99.7264V191.952H101.001C102.115 191.952 103.012 191.754 103.691 191.357C104.182 191.093 104.56 190.64 104.824 189.998C105.032 189.545 105.136 188.355 105.136 186.43V161.168C105.136 159.204 105.032 157.977 104.824 157.486C104.616 156.995 104.192 156.571 103.55 156.212C102.927 155.834 102.077 155.646 101.001 155.646H99.7264V154.598H119.805V155.646H118.531C117.417 155.646 116.52 155.844 115.841 156.24C115.35 156.505 114.963 156.958 114.679 157.6C114.472 158.053 114.368 159.242 114.368 161.168V186.43C114.368 188.393 114.472 189.62 114.679 190.111C114.906 190.602 115.331 191.036 115.954 191.414C116.596 191.773 117.455 191.952 118.531 191.952H119.805ZM167.676 154.598V155.646C166.279 155.872 165.033 156.618 163.938 157.883C163.145 158.827 161.965 161.045 160.398 164.538L147.172 193.878H146.237L133.068 163.349C131.482 159.667 130.416 157.505 129.868 156.863C129.34 156.221 128.329 155.815 126.838 155.646V154.598H145.246V155.646H144.623C142.962 155.646 141.829 155.853 141.225 156.269C140.79 156.552 140.573 156.967 140.573 157.515C140.573 157.854 140.649 158.26 140.8 158.732C140.951 159.186 141.461 160.422 142.329 162.442L150.514 181.559L158.104 164.538C159.01 162.48 159.567 161.102 159.774 160.403C159.982 159.705 160.086 159.11 160.086 158.619C160.086 158.053 159.935 157.552 159.633 157.118C159.331 156.684 158.887 156.354 158.302 156.127C157.49 155.806 156.414 155.646 155.073 155.646V154.598H167.676ZM189.322 156.807V172.439H190.086C192.522 172.439 194.287 171.675 195.382 170.146C196.477 168.616 197.176 166.36 197.478 163.377H198.554V183.484H197.478C197.251 181.294 196.77 179.501 196.034 178.104C195.316 176.706 194.476 175.772 193.513 175.3C192.55 174.809 191.153 174.563 189.322 174.563V185.382C189.322 187.496 189.407 188.79 189.577 189.262C189.765 189.734 190.105 190.121 190.596 190.423C191.087 190.725 191.88 190.876 192.975 190.876H195.269C198.856 190.876 201.726 190.045 203.878 188.384C206.05 186.722 207.607 184.192 208.551 180.794H209.599L207.871 193H174.68V191.952H175.954C177.068 191.952 177.965 191.754 178.645 191.357C179.136 191.093 179.513 190.64 179.778 189.998C179.985 189.545 180.089 188.355 180.089 186.43V161.168C180.089 159.431 180.042 158.364 179.948 157.968C179.759 157.307 179.41 156.797 178.9 156.438C178.182 155.91 177.201 155.646 175.954 155.646H174.68V154.598H206.824V165.954H205.747C205.2 163.179 204.426 161.187 203.425 159.979C202.443 158.77 201.046 157.883 199.234 157.316C198.176 156.977 196.194 156.807 193.286 156.807H189.322ZM232.831 175.498V186.26C232.831 188.337 232.953 189.649 233.199 190.196C233.463 190.725 233.916 191.15 234.558 191.471C235.2 191.792 236.399 191.952 238.155 191.952V193H218.501V191.952C220.275 191.952 221.474 191.792 222.097 191.471C222.739 191.131 223.183 190.697 223.428 190.168C223.693 189.639 223.825 188.337 223.825 186.26V161.338C223.825 159.261 223.693 157.958 223.428 157.43C223.183 156.882 222.739 156.448 222.097 156.127C221.455 155.806 220.256 155.646 218.501 155.646V154.598H236.342C240.987 154.598 244.385 154.919 246.538 155.561C248.69 156.202 250.446 157.392 251.805 159.129C253.165 160.847 253.844 162.867 253.844 165.189C253.844 168.021 252.825 170.363 250.786 172.213C249.483 173.383 247.661 174.261 245.32 174.847L254.552 187.846C255.761 189.526 256.62 190.574 257.13 190.989C257.904 191.575 258.8 191.896 259.82 191.952V193H247.727L235.351 175.498H232.831ZM232.831 156.665V173.487H234.445C237.069 173.487 239.033 173.251 240.336 172.779C241.638 172.288 242.658 171.42 243.394 170.174C244.149 168.909 244.527 167.266 244.527 165.246C244.527 162.32 243.838 160.158 242.46 158.761C241.1 157.364 238.901 156.665 235.861 156.665H232.831ZM291.803 153.72L292.114 166.521H290.953C290.406 163.311 289.056 160.734 286.903 158.789C284.77 156.826 282.457 155.844 279.965 155.844C278.039 155.844 276.51 156.363 275.377 157.401C274.263 158.421 273.706 159.601 273.706 160.941C273.706 161.791 273.904 162.546 274.301 163.207C274.848 164.094 275.726 164.972 276.935 165.841C277.822 166.464 279.87 167.568 283.08 169.154C287.574 171.363 290.604 173.45 292.171 175.413C293.719 177.377 294.493 179.623 294.493 182.153C294.493 185.363 293.238 188.129 290.727 190.451C288.234 192.755 285.062 193.906 281.211 193.906C280.003 193.906 278.86 193.784 277.784 193.538C276.708 193.293 275.358 192.83 273.734 192.15C272.828 191.773 272.082 191.584 271.497 191.584C271.006 191.584 270.487 191.773 269.939 192.15C269.392 192.528 268.948 193.104 268.608 193.878H267.56V179.378H268.608C269.439 183.456 271.034 186.571 273.394 188.724C275.773 190.857 278.332 191.924 281.069 191.924C283.184 191.924 284.864 191.348 286.11 190.196C287.375 189.045 288.008 187.704 288.008 186.175C288.008 185.269 287.762 184.391 287.271 183.541C286.799 182.691 286.073 181.889 285.091 181.134C284.109 180.36 282.372 179.359 279.88 178.132C276.387 176.414 273.876 174.951 272.347 173.742C270.817 172.534 269.637 171.184 268.807 169.692C267.995 168.201 267.589 166.558 267.589 164.765C267.589 161.706 268.712 159.101 270.959 156.948C273.206 154.796 276.038 153.72 279.455 153.72C280.701 153.72 281.909 153.871 283.08 154.173C283.967 154.399 285.044 154.824 286.309 155.447C287.592 156.051 288.489 156.354 288.999 156.354C289.49 156.354 289.877 156.202 290.16 155.9C290.443 155.598 290.708 154.871 290.953 153.72H291.803ZM323.304 191.952V193H303.225V191.952H304.499C305.613 191.952 306.51 191.754 307.19 191.357C307.681 191.093 308.058 190.64 308.322 189.998C308.53 189.545 308.634 188.355 308.634 186.43V161.168C308.634 159.204 308.53 157.977 308.322 157.486C308.115 156.995 307.69 156.571 307.048 156.212C306.425 155.834 305.575 155.646 304.499 155.646H303.225V154.598H323.304V155.646H322.029C320.916 155.646 320.019 155.844 319.339 156.24C318.848 156.505 318.461 156.958 318.178 157.6C317.97 158.053 317.866 159.242 317.866 161.168V186.43C317.866 188.393 317.97 189.62 318.178 190.111C318.404 190.602 318.829 191.036 319.452 191.414C320.094 191.773 320.953 191.952 322.029 191.952H323.304ZM366.473 154.598V164.991H365.454C364.849 162.593 364.179 160.875 363.443 159.837C362.707 158.78 361.696 157.939 360.413 157.316C359.695 156.977 358.44 156.807 356.646 156.807H353.786V186.43C353.786 188.393 353.889 189.62 354.097 190.111C354.324 190.602 354.749 191.036 355.372 191.414C356.014 191.773 356.882 191.952 357.977 191.952H359.251V193H339.144V191.952H340.418C341.532 191.952 342.429 191.754 343.109 191.357C343.6 191.093 343.987 190.64 344.27 189.998C344.478 189.545 344.582 188.355 344.582 186.43V156.807H341.806C339.22 156.807 337.341 157.354 336.17 158.449C334.528 159.979 333.489 162.159 333.055 164.991H331.979V154.598H366.473ZM415.023 154.598V155.646C413.758 155.815 412.786 156.184 412.106 156.75C411.162 157.543 409.671 159.705 407.632 163.235L399.305 177.141V186.43C399.305 188.412 399.409 189.649 399.617 190.14C399.825 190.612 400.231 191.036 400.835 191.414C401.458 191.773 402.279 191.952 403.299 191.952H405.451V193H383.899V191.952H385.91C387.043 191.952 387.94 191.754 388.6 191.357C389.091 191.093 389.478 190.64 389.761 189.998C389.969 189.545 390.073 188.355 390.073 186.43V178.727L381.039 162.272C379.245 159.025 377.98 157.118 377.244 156.552C376.508 155.966 375.526 155.664 374.299 155.646V154.598H392.707V155.646H391.885C390.772 155.646 389.988 155.806 389.535 156.127C389.101 156.448 388.884 156.788 388.884 157.146C388.884 157.826 389.639 159.535 391.149 162.272L398.088 174.988L404.998 163.405C406.716 160.573 407.575 158.695 407.575 157.77C407.575 157.26 407.33 156.835 406.839 156.495C406.197 156.023 405.017 155.74 403.299 155.646V154.598H415.023ZM102.105 238.952V240H82.0262V238.952H83.3006C84.4145 238.952 85.3113 238.754 85.991 238.357C86.4819 238.093 86.8595 237.64 87.1238 236.998C87.3315 236.545 87.4353 235.355 87.4353 233.43V208.168C87.4353 206.204 87.3315 204.977 87.1238 204.486C86.9161 203.995 86.4913 203.571 85.8494 203.212C85.2264 202.834 84.3768 202.646 83.3006 202.646H82.0262V201.598H102.105V202.646H100.831C99.7169 202.646 98.8201 202.844 98.1404 203.24C97.6495 203.505 97.2625 203.958 96.9793 204.6C96.7716 205.053 96.6678 206.242 96.6678 208.168V233.43C96.6678 235.393 96.7716 236.62 96.9793 237.111C97.2059 237.602 97.6307 238.036 98.2537 238.414C98.8956 238.773 99.7547 238.952 100.831 238.952H102.105ZM123.128 201.598L142.074 225.415V208.904C142.074 206.601 141.744 205.043 141.083 204.231C140.177 203.136 138.657 202.608 136.524 202.646V201.598H149.211V202.646C147.587 202.853 146.492 203.127 145.926 203.467C145.378 203.788 144.944 204.326 144.623 205.081C144.321 205.817 144.17 207.092 144.17 208.904V240.878H143.207L117.237 208.904V233.316C117.237 235.525 117.738 237.017 118.738 237.791C119.758 238.565 120.919 238.952 122.222 238.952H123.128V240H109.506V238.952C111.621 238.933 113.093 238.499 113.924 237.649C114.755 236.8 115.17 235.355 115.17 233.316V206.214L114.349 205.194C113.537 204.175 112.819 203.505 112.196 203.184C111.573 202.863 110.677 202.683 109.506 202.646V201.598H123.128ZM156.583 240V238.952H157.858C158.972 238.952 159.821 238.782 160.407 238.442C161.011 238.084 161.454 237.602 161.738 236.998C161.908 236.602 161.993 235.412 161.993 233.43V208.168C161.993 206.204 161.889 204.977 161.681 204.486C161.473 203.995 161.049 203.571 160.407 203.212C159.784 202.834 158.934 202.646 157.858 202.646H156.583V201.598H173.774C178.362 201.598 182.053 202.221 184.847 203.467C188.264 204.996 190.851 207.309 192.607 210.405C194.382 213.502 195.269 217.004 195.269 220.912C195.269 223.612 194.835 226.104 193.966 228.389C193.098 230.654 191.974 232.533 190.596 234.024C189.218 235.497 187.622 236.687 185.81 237.593C184.016 238.48 181.817 239.169 179.211 239.66C178.06 239.887 176.247 240 173.774 240H156.583ZM171.225 203.778V233.741C171.225 235.327 171.3 236.299 171.452 236.658C171.603 237.017 171.857 237.291 172.216 237.479C172.726 237.763 173.462 237.904 174.425 237.904C177.578 237.904 179.985 236.828 181.647 234.676C183.912 231.768 185.045 227.256 185.045 221.139C185.045 216.211 184.271 212.274 182.723 209.329C181.496 207.026 179.919 205.459 177.994 204.628C176.634 204.043 174.378 203.759 171.225 203.778ZM225.354 201.06C231.471 200.833 236.437 202.617 240.251 206.412C244.083 210.207 246 214.955 246 220.657C246 225.528 244.574 229.814 241.723 233.515C237.947 238.424 232.614 240.878 225.722 240.878C218.812 240.878 213.469 238.537 209.693 233.854C206.71 230.154 205.218 225.764 205.218 220.686C205.218 214.984 207.154 210.235 211.024 206.44C214.913 202.627 219.69 200.833 225.354 201.06ZM225.694 202.872C222.182 202.872 219.511 204.666 217.679 208.253C216.188 211.198 215.442 215.427 215.442 220.94C215.442 227.492 216.594 232.335 218.897 235.469C220.502 237.659 222.749 238.754 225.637 238.754C227.582 238.754 229.206 238.282 230.508 237.338C232.17 236.13 233.463 234.204 234.388 231.561C235.313 228.898 235.776 225.434 235.776 221.167C235.776 216.088 235.304 212.293 234.36 209.782C233.416 207.252 232.208 205.468 230.735 204.43C229.281 203.391 227.601 202.872 225.694 202.872ZM268.722 222.498V233.26C268.722 235.337 268.844 236.649 269.09 237.196C269.354 237.725 269.807 238.15 270.449 238.471C271.091 238.792 272.29 238.952 274.046 238.952V240H254.392V238.952C256.166 238.952 257.365 238.792 257.988 238.471C258.63 238.131 259.074 237.697 259.319 237.168C259.584 236.639 259.716 235.337 259.716 233.26V208.338C259.716 206.261 259.584 204.958 259.319 204.43C259.074 203.882 258.63 203.448 257.988 203.127C257.346 202.806 256.147 202.646 254.392 202.646V201.598H272.233C276.878 201.598 280.276 201.919 282.429 202.561C284.581 203.202 286.337 204.392 287.696 206.129C289.056 207.847 289.735 209.867 289.735 212.189C289.735 215.021 288.716 217.363 286.677 219.213C285.374 220.383 283.552 221.261 281.211 221.847L290.443 234.846C291.652 236.526 292.511 237.574 293.02 237.989C293.795 238.575 294.691 238.896 295.711 238.952V240H283.618L271.242 222.498H268.722ZM268.722 203.665V220.487H270.336C272.96 220.487 274.924 220.251 276.226 219.779C277.529 219.288 278.549 218.42 279.285 217.174C280.04 215.909 280.418 214.266 280.418 212.246C280.418 209.32 279.729 207.158 278.351 205.761C276.991 204.364 274.792 203.665 271.752 203.665H268.722ZM316.252 203.807V219.439H317.017C319.452 219.439 321.218 218.675 322.313 217.146C323.408 215.616 324.106 213.36 324.408 210.377H325.485V230.484H324.408C324.182 228.294 323.7 226.501 322.964 225.104C322.247 223.706 321.406 222.772 320.444 222.3C319.481 221.809 318.084 221.563 316.252 221.563V232.382C316.252 234.496 316.337 235.79 316.507 236.262C316.696 236.734 317.036 237.121 317.527 237.423C318.017 237.725 318.81 237.876 319.905 237.876H322.199C325.787 237.876 328.656 237.045 330.809 235.384C332.98 233.722 334.538 231.192 335.482 227.794H336.529L334.802 240H301.611V238.952H302.885C303.999 238.952 304.896 238.754 305.575 238.357C306.066 238.093 306.444 237.64 306.708 236.998C306.916 236.545 307.02 235.355 307.02 233.43V208.168C307.02 206.431 306.973 205.364 306.878 204.968C306.689 204.307 306.34 203.797 305.83 203.438C305.113 202.91 304.131 202.646 302.885 202.646H301.611V201.598H333.754V212.954H332.678C332.13 210.179 331.356 208.187 330.356 206.979C329.374 205.77 327.977 204.883 326.164 204.316C325.107 203.977 323.125 203.807 320.217 203.807H316.252Z" fill="white"/>
<line y1="137" x2="411.005" y2="137" stroke="white" stroke-width="4"/>
<line x1="6" y1="215" x2="78" y2="215" stroke="white" stroke-width="4"/>
<path d="M70.6133 24.4131L71.4189 57.5186H68.416C67 49.2178 63.5088 42.5527 57.9424 37.5234C52.4248 32.4453 46.4434 29.9062 39.998 29.9062C35.0176 29.9062 31.0625 31.249 28.1328 33.9346C25.252 36.5713 23.8115 39.623 23.8115 43.0898C23.8115 45.2871 24.3242 47.2402 25.3496 48.9492C26.7656 51.2441 29.0361 53.5146 32.1611 55.7607C34.4561 57.3721 39.7539 60.2285 48.0547 64.3301C59.6758 70.043 67.5127 75.4385 71.5654 80.5166C75.5693 85.5947 77.5713 91.4053 77.5713 97.9482C77.5713 106.249 74.3242 113.402 67.8301 119.408C61.3848 125.365 53.1816 128.344 43.2207 128.344C40.0957 128.344 37.1416 128.026 34.3584 127.392C31.5752 126.757 28.084 125.561 23.8848 123.803C21.541 122.826 19.6123 122.338 18.0986 122.338C16.8291 122.338 15.4863 122.826 14.0703 123.803C12.6543 124.779 11.5068 126.269 10.6279 128.271H7.91797V90.7705H10.6279C12.7764 101.317 16.9023 109.374 23.0059 114.94C29.1582 120.458 35.7744 123.217 42.8545 123.217C48.3232 123.217 52.6689 121.728 55.8916 118.749C59.1631 115.771 60.7988 112.304 60.7988 108.349C60.7988 106.005 60.1641 103.734 58.8945 101.537C57.6738 99.3398 55.7939 97.2646 53.2549 95.3115C50.7158 93.3096 46.2236 90.7217 39.7783 87.5479C30.7451 83.1045 24.251 79.3203 20.2959 76.1953C16.3408 73.0703 13.2891 69.5791 11.1406 65.7217C9.04102 61.8643 7.99121 57.6162 7.99121 52.9775C7.99121 45.0674 10.8965 38.3291 16.707 32.7627C22.5176 27.1963 29.8418 24.4131 38.6797 24.4131C41.9023 24.4131 45.0273 24.8037 48.0547 25.585C50.3496 26.1709 53.1328 27.2695 56.4043 28.8809C59.7246 30.4434 62.0439 31.2246 63.3623 31.2246C64.6318 31.2246 65.6328 30.834 66.3652 30.0527C67.0977 29.2715 67.7812 27.3916 68.416 24.4131H70.6133ZM146.053 97.7285H110.97L106.795 107.396C105.428 110.619 104.744 113.28 104.744 115.38C104.744 118.163 105.867 120.214 108.113 121.532C109.432 122.313 112.679 122.899 117.854 123.29V126H84.8223V123.29C88.3867 122.753 91.3164 121.288 93.6113 118.896C95.9062 116.454 98.7383 111.449 102.107 103.881L137.63 24.6328H139.021L174.837 106.078C178.255 113.793 181.062 118.651 183.26 120.653C184.92 122.167 187.264 123.046 190.291 123.29V126H142.244V123.29H144.222C148.079 123.29 150.789 122.753 152.352 121.679C153.426 120.897 153.963 119.774 153.963 118.31C153.963 117.431 153.816 116.527 153.523 115.6C153.426 115.16 152.693 113.329 151.326 110.106L146.053 97.7285ZM143.562 92.3086L128.768 58.1045L113.533 92.3086H143.562ZM295.54 24.4131V59.4229H292.83C289.559 49.8525 284.651 42.5771 278.108 37.5967C271.565 32.6162 264.412 30.126 256.648 30.126C249.227 30.126 243.05 32.2256 238.118 36.4248C233.187 40.5752 229.695 46.3857 227.645 53.8564C225.594 61.3271 224.568 68.9932 224.568 76.8545C224.568 86.376 225.691 94.7256 227.938 101.903C230.184 109.081 233.797 114.354 238.777 117.724C243.807 121.093 249.764 122.777 256.648 122.777C259.041 122.777 261.482 122.533 263.973 122.045C266.512 121.508 269.1 120.751 271.736 119.774V99.1201C271.736 95.2139 271.468 92.6992 270.931 91.5762C270.394 90.4043 269.271 89.3545 267.562 88.4268C265.901 87.499 263.875 87.0352 261.482 87.0352H258.919V84.3252H307.186V87.0352C303.523 87.2793 300.96 87.792 299.495 88.5732C298.079 89.3057 296.98 90.5508 296.199 92.3086C295.76 93.2363 295.54 95.5068 295.54 99.1201V119.774C289.192 122.606 282.576 124.73 275.691 126.146C268.855 127.611 261.751 128.344 254.378 128.344C244.954 128.344 237.117 127.074 230.867 124.535C224.666 121.947 219.173 118.578 214.388 114.428C209.651 110.229 205.94 105.517 203.255 100.292C199.837 93.5537 198.128 86.0098 198.128 77.6602C198.128 62.7188 203.377 50.0967 213.875 39.7939C224.373 29.4912 237.581 24.3398 253.499 24.3398C258.431 24.3398 262.874 24.7305 266.829 25.5117C268.978 25.9023 272.444 27.0254 277.229 28.8809C282.063 30.6875 284.92 31.5908 285.799 31.5908C287.166 31.5908 288.436 31.1025 289.607 30.126C290.779 29.1006 291.854 27.1963 292.83 24.4131H295.54ZM349.666 32.3965V72.8262H351.644C357.942 72.8262 362.508 70.8486 365.34 66.8936C368.172 62.9385 369.979 57.1035 370.76 49.3887H373.543V101.391H370.76C370.174 95.7266 368.929 91.0879 367.024 87.4746C365.169 83.8613 362.996 81.4443 360.506 80.2236C358.016 78.9541 354.402 78.3193 349.666 78.3193V106.298C349.666 111.767 349.886 115.111 350.325 116.332C350.813 117.553 351.692 118.554 352.962 119.335C354.231 120.116 356.282 120.507 359.114 120.507H365.047C374.324 120.507 381.746 118.358 387.312 114.062C392.928 109.765 396.956 103.222 399.397 94.4326H402.107L397.64 126H311.8V123.29H315.096C317.977 123.29 320.296 122.777 322.054 121.752C323.323 121.068 324.3 119.896 324.983 118.236C325.521 117.064 325.789 113.988 325.789 109.008V43.6758C325.789 39.1836 325.667 36.4248 325.423 35.3994C324.935 33.6904 324.031 32.3721 322.713 31.4443C320.857 30.0771 318.318 29.3936 315.096 29.3936H311.8V26.6836H394.93V56.0537H392.146C390.73 48.876 388.729 43.7246 386.141 40.5996C383.602 37.4746 379.988 35.1797 375.301 33.7148C372.566 32.8359 367.439 32.3965 359.92 32.3965H349.666Z" fill="white"/>
<path d="M5.65648 154.598H25.4807V155.646H24.4895C22.998 155.646 21.969 155.806 21.4026 156.127C20.855 156.429 20.4586 156.854 20.2131 157.401C19.9866 157.949 19.8733 159.318 19.8733 161.508V180.312C19.8733 183.749 20.1282 186.024 20.6379 187.138C21.1666 188.252 22.0256 189.177 23.2151 189.913C24.4045 190.649 25.9055 191.018 27.718 191.018C29.7948 191.018 31.5601 190.555 33.0139 189.63C34.4866 188.686 35.5816 187.393 36.2991 185.75C37.0354 184.107 37.4035 181.247 37.4035 177.169V161.508C37.4035 159.79 37.2242 158.562 36.8655 157.826C36.5067 157.09 36.0536 156.58 35.5061 156.297C34.6565 155.863 33.4576 155.646 31.9094 155.646V154.598H45.1916V155.646H44.3987C43.3225 155.646 42.4257 155.863 41.7082 156.297C40.9908 156.731 40.4716 157.382 40.1506 158.251C39.9052 158.855 39.7825 159.941 39.7825 161.508V176.093C39.7825 180.605 39.4804 183.862 38.8762 185.863C38.2909 187.865 36.8466 189.705 34.5432 191.386C32.2398 193.066 29.0963 193.906 25.1125 193.906C21.7896 193.906 19.2219 193.463 17.4094 192.575C14.9361 191.367 13.1897 189.819 12.1702 187.931C11.1506 186.043 10.6409 183.503 10.6409 180.312V161.508C10.6409 159.299 10.5181 157.93 10.2727 157.401C10.0272 156.854 9.60244 156.42 8.99828 156.099C8.39411 155.778 7.28018 155.627 5.65648 155.646V154.598ZM65.8745 154.598L84.8208 178.415V161.904C84.8208 159.601 84.4904 158.043 83.8296 157.231C82.9234 156.136 81.4035 155.608 79.27 155.646V154.598H91.9575V155.646C90.3338 155.853 89.2388 156.127 88.6724 156.467C88.1249 156.788 87.6906 157.326 87.3696 158.081C87.0676 158.817 86.9165 160.092 86.9165 161.904V193.878H85.9536L59.9839 161.904V186.316C59.9839 188.525 60.4842 190.017 61.4849 190.791C62.5044 191.565 63.6655 191.952 64.9683 191.952H65.8745V193H52.2525V191.952C54.367 191.933 55.8397 191.499 56.6704 190.649C57.5012 189.8 57.9165 188.355 57.9165 186.316V159.214L57.0952 158.194C56.2834 157.175 55.5659 156.505 54.9429 156.184C54.3198 155.863 53.423 155.683 52.2525 155.646V154.598H65.8745ZM119.805 191.952V193H99.7264V191.952H101.001C102.115 191.952 103.012 191.754 103.691 191.357C104.182 191.093 104.56 190.64 104.824 189.998C105.032 189.545 105.136 188.355 105.136 186.43V161.168C105.136 159.204 105.032 157.977 104.824 157.486C104.616 156.995 104.192 156.571 103.55 156.212C102.927 155.834 102.077 155.646 101.001 155.646H99.7264V154.598H119.805V155.646H118.531C117.417 155.646 116.52 155.844 115.841 156.24C115.35 156.505 114.963 156.958 114.679 157.6C114.472 158.053 114.368 159.242 114.368 161.168V186.43C114.368 188.393 114.472 189.62 114.679 190.111C114.906 190.602 115.331 191.036 115.954 191.414C116.596 191.773 117.455 191.952 118.531 191.952H119.805ZM167.676 154.598V155.646C166.279 155.872 165.033 156.618 163.938 157.883C163.145 158.827 161.965 161.045 160.398 164.538L147.172 193.878H146.237L133.068 163.349C131.482 159.667 130.416 157.505 129.868 156.863C129.34 156.221 128.329 155.815 126.838 155.646V154.598H145.246V155.646H144.623C142.962 155.646 141.829 155.853 141.225 156.269C140.79 156.552 140.573 156.967 140.573 157.515C140.573 157.854 140.649 158.26 140.8 158.732C140.951 159.186 141.461 160.422 142.329 162.442L150.514 181.559L158.104 164.538C159.01 162.48 159.567 161.102 159.774 160.403C159.982 159.705 160.086 159.11 160.086 158.619C160.086 158.053 159.935 157.552 159.633 157.118C159.331 156.684 158.887 156.354 158.302 156.127C157.49 155.806 156.414 155.646 155.073 155.646V154.598H167.676ZM189.322 156.807V172.439H190.086C192.522 172.439 194.287 171.675 195.382 170.146C196.477 168.616 197.176 166.36 197.478 163.377H198.554V183.484H197.478C197.251 181.294 196.77 179.501 196.034 178.104C195.316 176.706 194.476 175.772 193.513 175.3C192.55 174.809 191.153 174.563 189.322 174.563V185.382C189.322 187.496 189.407 188.79 189.577 189.262C189.765 189.734 190.105 190.121 190.596 190.423C191.087 190.725 191.88 190.876 192.975 190.876H195.269C198.856 190.876 201.726 190.045 203.878 188.384C206.05 186.722 207.607 184.192 208.551 180.794H209.599L207.871 193H174.68V191.952H175.954C177.068 191.952 177.965 191.754 178.645 191.357C179.136 191.093 179.513 190.64 179.778 189.998C179.985 189.545 180.089 188.355 180.089 186.43V161.168C180.089 159.431 180.042 158.364 179.948 157.968C179.759 157.307 179.41 156.797 178.9 156.438C178.182 155.91 177.201 155.646 175.954 155.646H174.68V154.598H206.824V165.954H205.747C205.2 163.179 204.426 161.187 203.425 159.979C202.443 158.77 201.046 157.883 199.234 157.316C198.176 156.977 196.194 156.807 193.286 156.807H189.322ZM232.831 175.498V186.26C232.831 188.337 232.953 189.649 233.199 190.196C233.463 190.725 233.916 191.15 234.558 191.471C235.2 191.792 236.399 191.952 238.155 191.952V193H218.501V191.952C220.275 191.952 221.474 191.792 222.097 191.471C222.739 191.131 223.183 190.697 223.428 190.168C223.693 189.639 223.825 188.337 223.825 186.26V161.338C223.825 159.261 223.693 157.958 223.428 157.43C223.183 156.882 222.739 156.448 222.097 156.127C221.455 155.806 220.256 155.646 218.501 155.646V154.598H236.342C240.987 154.598 244.385 154.919 246.538 155.561C248.69 156.202 250.446 157.392 251.805 159.129C253.165 160.847 253.844 162.867 253.844 165.189C253.844 168.021 252.825 170.363 250.786 172.213C249.483 173.383 247.661 174.261 245.32 174.847L254.552 187.846C255.761 189.526 256.62 190.574 257.13 190.989C257.904 191.575 258.8 191.896 259.82 191.952V193H247.727L235.351 175.498H232.831ZM232.831 156.665V173.487H234.445C237.069 173.487 239.033 173.251 240.336 172.779C241.638 172.288 242.658 171.42 243.394 170.174C244.149 168.909 244.527 167.266 244.527 165.246C244.527 162.32 243.838 160.158 242.46 158.761C241.1 157.364 238.901 156.665 235.861 156.665H232.831ZM291.803 153.72L292.114 166.521H290.953C290.406 163.311 289.056 160.734 286.903 158.789C284.77 156.826 282.457 155.844 279.965 155.844C278.039 155.844 276.51 156.363 275.377 157.401C274.263 158.421 273.706 159.601 273.706 160.941C273.706 161.791 273.904 162.546 274.301 163.207C274.848 164.094 275.726 164.972 276.935 165.841C277.822 166.464 279.87 167.568 283.08 169.154C287.574 171.363 290.604 173.45 292.171 175.413C293.719 177.377 294.493 179.623 294.493 182.153C294.493 185.363 293.238 188.129 290.727 190.451C288.234 192.755 285.062 193.906 281.211 193.906C280.003 193.906 278.86 193.784 277.784 193.538C276.708 193.293 275.358 192.83 273.734 192.15C272.828 191.773 272.082 191.584 271.497 191.584C271.006 191.584 270.487 191.773 269.939 192.15C269.392 192.528 268.948 193.104 268.608 193.878H267.56V179.378H268.608C269.439 183.456 271.034 186.571 273.394 188.724C275.773 190.857 278.332 191.924 281.069 191.924C283.184 191.924 284.864 191.348 286.11 190.196C287.375 189.045 288.008 187.704 288.008 186.175C288.008 185.269 287.762 184.391 287.271 183.541C286.799 182.691 286.073 181.889 285.091 181.134C284.109 180.36 282.372 179.359 279.88 178.132C276.387 176.414 273.876 174.951 272.347 173.742C270.817 172.534 269.637 171.184 268.807 169.692C267.995 168.201 267.589 166.558 267.589 164.765C267.589 161.706 268.712 159.101 270.959 156.948C273.206 154.796 276.038 153.72 279.455 153.72C280.701 153.72 281.909 153.871 283.08 154.173C283.967 154.399 285.044 154.824 286.309 155.447C287.592 156.051 288.489 156.354 288.999 156.354C289.49 156.354 289.877 156.202 290.16 155.9C290.443 155.598 290.708 154.871 290.953 153.72H291.803ZM323.304 191.952V193H303.225V191.952H304.499C305.613 191.952 306.51 191.754 307.19 191.357C307.681 191.093 308.058 190.64 308.322 189.998C308.53 189.545 308.634 188.355 308.634 186.43V161.168C308.634 159.204 308.53 157.977 308.322 157.486C308.115 156.995 307.69 156.571 307.048 156.212C306.425 155.834 305.575 155.646 304.499 155.646H303.225V154.598H323.304V155.646H322.029C320.916 155.646 320.019 155.844 319.339 156.24C318.848 156.505 318.461 156.958 318.178 157.6C317.97 158.053 317.866 159.242 317.866 161.168V186.43C317.866 188.393 317.97 189.62 318.178 190.111C318.404 190.602 318.829 191.036 319.452 191.414C320.094 191.773 320.953 191.952 322.029 191.952H323.304ZM366.473 154.598V164.991H365.454C364.849 162.593 364.179 160.875 363.443 159.837C362.707 158.78 361.696 157.939 360.413 157.316C359.695 156.977 358.44 156.807 356.646 156.807H353.786V186.43C353.786 188.393 353.889 189.62 354.097 190.111C354.324 190.602 354.749 191.036 355.372 191.414C356.014 191.773 356.882 191.952 357.977 191.952H359.251V193H339.144V191.952H340.418C341.532 191.952 342.429 191.754 343.109 191.357C343.6 191.093 343.987 190.64 344.27 189.998C344.478 189.545 344.582 188.355 344.582 186.43V156.807H341.806C339.22 156.807 337.341 157.354 336.17 158.449C334.528 159.979 333.489 162.159 333.055 164.991H331.979V154.598H366.473ZM415.023 154.598V155.646C413.758 155.815 412.786 156.184 412.106 156.75C411.162 157.543 409.671 159.705 407.632 163.235L399.305 177.141V186.43C399.305 188.412 399.409 189.649 399.617 190.14C399.825 190.612 400.231 191.036 400.835 191.414C401.458 191.773 402.279 191.952 403.299 191.952H405.451V193H383.899V191.952H385.91C387.043 191.952 387.94 191.754 388.6 191.357C389.091 191.093 389.478 190.64 389.761 189.998C389.969 189.545 390.073 188.355 390.073 186.43V178.727L381.039 162.272C379.245 159.025 377.98 157.118 377.244 156.552C376.508 155.966 375.526 155.664 374.299 155.646V154.598H392.707V155.646H391.885C390.772 155.646 389.988 155.806 389.535 156.127C389.101 156.448 388.884 156.788 388.884 157.146C388.884 157.826 389.639 159.535 391.149 162.272L398.088 174.988L404.998 163.405C406.716 160.573 407.575 158.695 407.575 157.77C407.575 157.26 407.33 156.835 406.839 156.495C406.197 156.023 405.017 155.74 403.299 155.646V154.598H415.023ZM102.105 238.952V240H82.0262V238.952H83.3006C84.4145 238.952 85.3113 238.754 85.991 238.357C86.4819 238.093 86.8595 237.64 87.1238 236.998C87.3315 236.545 87.4353 235.355 87.4353 233.43V208.168C87.4353 206.204 87.3315 204.977 87.1238 204.486C86.9161 203.995 86.4913 203.571 85.8494 203.212C85.2264 202.834 84.3768 202.646 83.3006 202.646H82.0262V201.598H102.105V202.646H100.831C99.7169 202.646 98.8201 202.844 98.1404 203.24C97.6495 203.505 97.2625 203.958 96.9793 204.6C96.7716 205.053 96.6678 206.242 96.6678 208.168V233.43C96.6678 235.393 96.7716 236.62 96.9793 237.111C97.2059 237.602 97.6307 238.036 98.2537 238.414C98.8956 238.773 99.7547 238.952 100.831 238.952H102.105ZM123.128 201.598L142.074 225.415V208.904C142.074 206.601 141.744 205.043 141.083 204.231C140.177 203.136 138.657 202.608 136.524 202.646V201.598H149.211V202.646C147.587 202.853 146.492 203.127 145.926 203.467C145.378 203.788 144.944 204.326 144.623 205.081C144.321 205.817 144.17 207.092 144.17 208.904V240.878H143.207L117.237 208.904V233.316C117.237 235.525 117.738 237.017 118.738 237.791C119.758 238.565 120.919 238.952 122.222 238.952H123.128V240H109.506V238.952C111.621 238.933 113.093 238.499 113.924 237.649C114.755 236.8 115.17 235.355 115.17 233.316V206.214L114.349 205.194C113.537 204.175 112.819 203.505 112.196 203.184C111.573 202.863 110.677 202.683 109.506 202.646V201.598H123.128ZM156.583 240V238.952H157.858C158.972 238.952 159.821 238.782 160.407 238.442C161.011 238.084 161.454 237.602 161.738 236.998C161.908 236.602 161.993 235.412 161.993 233.43V208.168C161.993 206.204 161.889 204.977 161.681 204.486C161.473 203.995 161.049 203.571 160.407 203.212C159.784 202.834 158.934 202.646 157.858 202.646H156.583V201.598H173.774C178.362 201.598 182.053 202.221 184.847 203.467C188.264 204.996 190.851 207.309 192.607 210.405C194.382 213.502 195.269 217.004 195.269 220.912C195.269 223.612 194.835 226.104 193.966 228.389C193.098 230.654 191.974 232.533 190.596 234.024C189.218 235.497 187.622 236.687 185.81 237.593C184.016 238.48 181.817 239.169 179.211 239.66C178.06 239.887 176.247 240 173.774 240H156.583ZM171.225 203.778V233.741C171.225 235.327 171.3 236.299 171.452 236.658C171.603 237.017 171.857 237.291 172.216 237.479C172.726 237.763 173.462 237.904 174.425 237.904C177.578 237.904 179.985 236.828 181.647 234.676C183.912 231.768 185.045 227.256 185.045 221.139C185.045 216.211 184.271 212.274 182.723 209.329C181.496 207.026 179.919 205.459 177.994 204.628C176.634 204.043 174.378 203.759 171.225 203.778ZM225.354 201.06C231.471 200.833 236.437 202.617 240.251 206.412C244.083 210.207 246 214.955 246 220.657C246 225.528 244.574 229.814 241.723 233.515C237.947 238.424 232.614 240.878 225.722 240.878C218.812 240.878 213.469 238.537 209.693 233.854C206.71 230.154 205.218 225.764 205.218 220.686C205.218 214.984 207.154 210.235 211.024 206.44C214.913 202.627 219.69 200.833 225.354 201.06ZM225.694 202.872C222.182 202.872 219.511 204.666 217.679 208.253C216.188 211.198 215.442 215.427 215.442 220.94C215.442 227.492 216.594 232.335 218.897 235.469C220.502 237.659 222.749 238.754 225.637 238.754C227.582 238.754 229.206 238.282 230.508 237.338C232.17 236.13 233.463 234.204 234.388 231.561C235.313 228.898 235.776 225.434 235.776 221.167C235.776 216.088 235.304 212.293 234.36 209.782C233.416 207.252 232.208 205.468 230.735 204.43C229.281 203.391 227.601 202.872 225.694 202.872ZM268.722 222.498V233.26C268.722 235.337 268.844 236.649 269.09 237.196C269.354 237.725 269.807 238.15 270.449 238.471C271.091 238.792 272.29 238.952 274.046 238.952V240H254.392V238.952C256.166 238.952 257.365 238.792 257.988 238.471C258.63 238.131 259.074 237.697 259.319 237.168C259.584 236.639 259.716 235.337 259.716 233.26V208.338C259.716 206.261 259.584 204.958 259.319 204.43C259.074 203.882 258.63 203.448 257.988 203.127C257.346 202.806 256.147 202.646 254.392 202.646V201.598H272.233C276.878 201.598 280.276 201.919 282.429 202.561C284.581 203.202 286.337 204.392 287.696 206.129C289.056 207.847 289.735 209.867 289.735 212.189C289.735 215.021 288.716 217.363 286.677 219.213C285.374 220.383 283.552 221.261 281.211 221.847L290.443 234.846C291.652 236.526 292.511 237.574 293.02 237.989C293.795 238.575 294.691 238.896 295.711 238.952V240H283.618L271.242 222.498H268.722ZM268.722 203.665V220.487H270.336C272.96 220.487 274.924 220.251 276.226 219.779C277.529 219.288 278.549 218.42 279.285 217.174C280.04 215.909 280.418 214.266 280.418 212.246C280.418 209.32 279.729 207.158 278.351 205.761C276.991 204.364 274.792 203.665 271.752 203.665H268.722ZM316.252 203.807V219.439H317.017C319.452 219.439 321.218 218.675 322.313 217.146C323.408 215.616 324.106 213.36 324.408 210.377H325.485V230.484H324.408C324.182 228.294 323.7 226.501 322.964 225.104C322.247 223.706 321.406 222.772 320.444 222.3C319.481 221.809 318.084 221.563 316.252 221.563V232.382C316.252 234.496 316.337 235.79 316.507 236.262C316.696 236.734 317.036 237.121 317.527 237.423C318.017 237.725 318.81 237.876 319.905 237.876H322.199C325.787 237.876 328.656 237.045 330.809 235.384C332.98 233.722 334.538 231.192 335.482 227.794H336.529L334.802 240H301.611V238.952H302.885C303.999 238.952 304.896 238.754 305.575 238.357C306.066 238.093 306.444 237.64 306.708 236.998C306.916 236.545 307.02 235.355 307.02 233.43V208.168C307.02 206.431 306.973 205.364 306.878 204.968C306.689 204.307 306.34 203.797 305.83 203.438C305.113 202.91 304.131 202.646 302.885 202.646H301.611V201.598H333.754V212.954H332.678C332.13 210.179 331.356 208.187 330.356 206.979C329.374 205.77 327.977 204.883 326.164 204.316C325.107 203.977 323.125 203.807 320.217 203.807H316.252Z" fill="white"/>
<line y1="137" x2="411.005" y2="137" stroke="white" stroke-width="4"/>
<line x1="6" y1="215" x2="78" y2="215" stroke="white" stroke-width="4"/>
<path d="M70.6133 24.4131L71.4189 57.5186H68.416C67 49.2178 63.5088 42.5527 57.9424 37.5234C52.4248 32.4453 46.4434 29.9062 39.998 29.9062C35.0176 29.9062 31.0625 31.249 28.1328 33.9346C25.252 36.5713 23.8115 39.623 23.8115 43.0898C23.8115 45.2871 24.3242 47.2402 25.3496 48.9492C26.7656 51.2441 29.0361 53.5146 32.1611 55.7607C34.4561 57.3721 39.7539 60.2285 48.0547 64.3301C59.6758 70.043 67.5127 75.4385 71.5654 80.5166C75.5693 85.5947 77.5713 91.4053 77.5713 97.9482C77.5713 106.249 74.3242 113.402 67.8301 119.408C61.3848 125.365 53.1816 128.344 43.2207 128.344C40.0957 128.344 37.1416 128.026 34.3584 127.392C31.5752 126.757 28.084 125.561 23.8848 123.803C21.541 122.826 19.6123 122.338 18.0986 122.338C16.8291 122.338 15.4863 122.826 14.0703 123.803C12.6543 124.779 11.5068 126.269 10.6279 128.271H7.91797V90.7705H10.6279C12.7764 101.317 16.9023 109.374 23.0059 114.94C29.1582 120.458 35.7744 123.217 42.8545 123.217C48.3232 123.217 52.6689 121.728 55.8916 118.749C59.1631 115.771 60.7988 112.304 60.7988 108.349C60.7988 106.005 60.1641 103.734 58.8945 101.537C57.6738 99.3398 55.7939 97.2646 53.2549 95.3115C50.7158 93.3096 46.2236 90.7217 39.7783 87.5479C30.7451 83.1045 24.251 79.3203 20.2959 76.1953C16.3408 73.0703 13.2891 69.5791 11.1406 65.7217C9.04102 61.8643 7.99121 57.6162 7.99121 52.9775C7.99121 45.0674 10.8965 38.3291 16.707 32.7627C22.5176 27.1963 29.8418 24.4131 38.6797 24.4131C41.9023 24.4131 45.0273 24.8037 48.0547 25.585C50.3496 26.1709 53.1328 27.2695 56.4043 28.8809C59.7246 30.4434 62.0439 31.2246 63.3623 31.2246C64.6318 31.2246 65.6328 30.834 66.3652 30.0527C67.0977 29.2715 67.7812 27.3916 68.416 24.4131H70.6133ZM146.053 97.7285H110.97L106.795 107.396C105.428 110.619 104.744 113.28 104.744 115.38C104.744 118.163 105.867 120.214 108.113 121.532C109.432 122.313 112.679 122.899 117.854 123.29V126H84.8223V123.29C88.3867 122.753 91.3164 121.288 93.6113 118.896C95.9062 116.454 98.7383 111.449 102.107 103.881L137.63 24.6328H139.021L174.837 106.078C178.255 113.793 181.062 118.651 183.26 120.653C184.92 122.167 187.264 123.046 190.291 123.29V126H142.244V123.29H144.222C148.079 123.29 150.789 122.753 152.352 121.679C153.426 120.897 153.963 119.774 153.963 118.31C153.963 117.431 153.816 116.527 153.523 115.6C153.426 115.16 152.693 113.329 151.326 110.106L146.053 97.7285ZM143.562 92.3086L128.768 58.1045L113.533 92.3086H143.562ZM295.54 24.4131V59.4229H292.83C289.559 49.8525 284.651 42.5771 278.108 37.5967C271.565 32.6162 264.412 30.126 256.648 30.126C249.227 30.126 243.05 32.2256 238.118 36.4248C233.187 40.5752 229.695 46.3857 227.645 53.8564C225.594 61.3271 224.568 68.9932 224.568 76.8545C224.568 86.376 225.691 94.7256 227.938 101.903C230.184 109.081 233.797 114.354 238.777 117.724C243.807 121.093 249.764 122.777 256.648 122.777C259.041 122.777 261.482 122.533 263.973 122.045C266.512 121.508 269.1 120.751 271.736 119.774V99.1201C271.736 95.2139 271.468 92.6992 270.931 91.5762C270.394 90.4043 269.271 89.3545 267.562 88.4268C265.901 87.499 263.875 87.0352 261.482 87.0352H258.919V84.3252H307.186V87.0352C303.523 87.2793 300.96 87.792 299.495 88.5732C298.079 89.3057 296.98 90.5508 296.199 92.3086C295.76 93.2363 295.54 95.5068 295.54 99.1201V119.774C289.192 122.606 282.576 124.73 275.691 126.146C268.855 127.611 261.751 128.344 254.378 128.344C244.954 128.344 237.117 127.074 230.867 124.535C224.666 121.947 219.173 118.578 214.388 114.428C209.651 110.229 205.94 105.517 203.255 100.292C199.837 93.5537 198.128 86.0098 198.128 77.6602C198.128 62.7188 203.377 50.0967 213.875 39.7939C224.373 29.4912 237.581 24.3398 253.499 24.3398C258.431 24.3398 262.874 24.7305 266.829 25.5117C268.978 25.9023 272.444 27.0254 277.229 28.8809C282.063 30.6875 284.92 31.5908 285.799 31.5908C287.166 31.5908 288.436 31.1025 289.607 30.126C290.779 29.1006 291.854 27.1963 292.83 24.4131H295.54ZM349.666 32.3965V72.8262H351.644C357.942 72.8262 362.508 70.8486 365.34 66.8936C368.172 62.9385 369.979 57.1035 370.76 49.3887H373.543V101.391H370.76C370.174 95.7266 368.929 91.0879 367.024 87.4746C365.169 83.8613 362.996 81.4443 360.506 80.2236C358.016 78.9541 354.402 78.3193 349.666 78.3193V106.298C349.666 111.767 349.886 115.111 350.325 116.332C350.813 117.553 351.692 118.554 352.962 119.335C354.231 120.116 356.282 120.507 359.114 120.507H365.047C374.324 120.507 381.746 118.358 387.312 114.062C392.928 109.765 396.956 103.222 399.397 94.4326H402.107L397.64 126H311.8V123.29H315.096C317.977 123.29 320.296 122.777 322.054 121.752C323.323 121.068 324.3 119.896 324.983 118.236C325.521 117.064 325.789 113.988 325.789 109.008V43.6758C325.789 39.1836 325.667 36.4248 325.423 35.3994C324.935 33.6904 324.031 32.3721 322.713 31.4443C320.857 30.0771 318.318 29.3936 315.096 29.3936H311.8V26.6836H394.93V56.0537H392.146C390.73 48.876 388.729 43.7246 386.141 40.5996C383.602 37.4746 379.988 35.1797 375.301 33.7148C372.566 32.8359 367.439 32.3965 359.92 32.3965H349.666Z" fill="white"/>
<path d="M5.65648 154.598H25.4807V155.646H24.4895C22.998 155.646 21.969 155.806 21.4026 156.127C20.855 156.429 20.4586 156.854 20.2131 157.401C19.9866 157.949 19.8733 159.318 19.8733 161.508V180.312C19.8733 183.749 20.1282 186.024 20.6379 187.138C21.1666 188.252 22.0256 189.177 23.2151 189.913C24.4045 190.649 25.9055 191.018 27.718 191.018C29.7948 191.018 31.5601 190.555 33.0139 189.63C34.4866 188.686 35.5816 187.393 36.2991 185.75C37.0354 184.107 37.4035 181.247 37.4035 177.169V161.508C37.4035 159.79 37.2242 158.562 36.8655 157.826C36.5067 157.09 36.0536 156.58 35.5061 156.297C34.6565 155.863 33.4576 155.646 31.9094 155.646V154.598H45.1916V155.646H44.3987C43.3225 155.646 42.4257 155.863 41.7082 156.297C40.9908 156.731 40.4716 157.382 40.1506 158.251C39.9052 158.855 39.7825 159.941 39.7825 161.508V176.093C39.7825 180.605 39.4804 183.862 38.8762 185.863C38.2909 187.865 36.8466 189.705 34.5432 191.386C32.2398 193.066 29.0963 193.906 25.1125 193.906C21.7896 193.906 19.2219 193.463 17.4094 192.575C14.9361 191.367 13.1897 189.819 12.1702 187.931C11.1506 186.043 10.6409 183.503 10.6409 180.312V161.508C10.6409 159.299 10.5181 157.93 10.2727 157.401C10.0272 156.854 9.60244 156.42 8.99828 156.099C8.39411 155.778 7.28018 155.627 5.65648 155.646V154.598ZM65.8745 154.598L84.8208 178.415V161.904C84.8208 159.601 84.4904 158.043 83.8296 157.231C82.9234 156.136 81.4035 155.608 79.27 155.646V154.598H91.9575V155.646C90.3338 155.853 89.2388 156.127 88.6724 156.467C88.1249 156.788 87.6906 157.326 87.3696 158.081C87.0676 158.817 86.9165 160.092 86.9165 161.904V193.878H85.9536L59.9839 161.904V186.316C59.9839 188.525 60.4842 190.017 61.4849 190.791C62.5044 191.565 63.6655 191.952 64.9683 191.952H65.8745V193H52.2525V191.952C54.367 191.933 55.8397 191.499 56.6704 190.649C57.5012 189.8 57.9165 188.355 57.9165 186.316V159.214L57.0952 158.194C56.2834 157.175 55.5659 156.505 54.9429 156.184C54.3198 155.863 53.423 155.683 52.2525 155.646V154.598H65.8745ZM119.805 191.952V193H99.7264V191.952H101.001C102.115 191.952 103.012 191.754 103.691 191.357C104.182 191.093 104.56 190.64 104.824 189.998C105.032 189.545 105.136 188.355 105.136 186.43V161.168C105.136 159.204 105.032 157.977 104.824 157.486C104.616 156.995 104.192 156.571 103.55 156.212C102.927 155.834 102.077 155.646 101.001 155.646H99.7264V154.598H119.805V155.646H118.531C117.417 155.646 116.52 155.844 115.841 156.24C115.35 156.505 114.963 156.958 114.679 157.6C114.472 158.053 114.368 159.242 114.368 161.168V186.43C114.368 188.393 114.472 189.62 114.679 190.111C114.906 190.602 115.331 191.036 115.954 191.414C116.596 191.773 117.455 191.952 118.531 191.952H119.805ZM167.676 154.598V155.646C166.279 155.872 165.033 156.618 163.938 157.883C163.145 158.827 161.965 161.045 160.398 164.538L147.172 193.878H146.237L133.068 163.349C131.482 159.667 130.416 157.505 129.868 156.863C129.34 156.221 128.329 155.815 126.838 155.646V154.598H145.246V155.646H144.623C142.962 155.646 141.829 155.853 141.225 156.269C140.79 156.552 140.573 156.967 140.573 157.515C140.573 157.854 140.649 158.26 140.8 158.732C140.951 159.186 141.461 160.422 142.329 162.442L150.514 181.559L158.104 164.538C159.01 162.48 159.567 161.102 159.774 160.403C159.982 159.705 160.086 159.11 160.086 158.619C160.086 158.053 159.935 157.552 159.633 157.118C159.331 156.684 158.887 156.354 158.302 156.127C157.49 155.806 156.414 155.646 155.073 155.646V154.598H167.676ZM189.322 156.807V172.439H190.086C192.522 172.439 194.287 171.675 195.382 170.146C196.477 168.616 197.176 166.36 197.478 163.377H198.554V183.484H197.478C197.251 181.294 196.77 179.501 196.034 178.104C195.316 176.706 194.476 175.772 193.513 175.3C192.55 174.809 191.153 174.563 189.322 174.563V185.382C189.322 187.496 189.407 188.79 189.577 189.262C189.765 189.734 190.105 190.121 190.596 190.423C191.087 190.725 191.88 190.876 192.975 190.876H195.269C198.856 190.876 201.726 190.045 203.878 188.384C206.05 186.722 207.607 184.192 208.551 180.794H209.599L207.871 193H174.68V191.952H175.954C177.068 191.952 177.965 191.754 178.645 191.357C179.136 191.093 179.513 190.64 179.778 189.998C179.985 189.545 180.089 188.355 180.089 186.43V161.168C180.089 159.431 180.042 158.364 179.948 157.968C179.759 157.307 179.41 156.797 178.9 156.438C178.182 155.91 177.201 155.646 175.954 155.646H174.68V154.598H206.824V165.954H205.747C205.2 163.179 204.426 161.187 203.425 159.979C202.443 158.77 201.046 157.883 199.234 157.316C198.176 156.977 196.194 156.807 193.286 156.807H189.322ZM232.831 175.498V186.26C232.831 188.337 232.953 189.649 233.199 190.196C233.463 190.725 233.916 191.15 234.558 191.471C235.2 191.792 236.399 191.952 238.155 191.952V193H218.501V191.952C220.275 191.952 221.474 191.792 222.097 191.471C222.739 191.131 223.183 190.697 223.428 190.168C223.693 189.639 223.825 188.337 223.825 186.26V161.338C223.825 159.261 223.693 157.958 223.428 157.43C223.183 156.882 222.739 156.448 222.097 156.127C221.455 155.806 220.256 155.646 218.501 155.646V154.598H236.342C240.987 154.598 244.385 154.919 246.538 155.561C248.69 156.202 250.446 157.392 251.805 159.129C253.165 160.847 253.844 162.867 253.844 165.189C253.844 168.021 252.825 170.363 250.786 172.213C249.483 173.383 247.661 174.261 245.32 174.847L254.552 187.846C255.761 189.526 256.62 190.574 257.13 190.989C257.904 191.575 258.8 191.896 259.82 191.952V193H247.727L235.351 175.498H232.831ZM232.831 156.665V173.487H234.445C237.069 173.487 239.033 173.251 240.336 172.779C241.638 172.288 242.658 171.42 243.394 170.174C244.149 168.909 244.527 167.266 244.527 165.246C244.527 162.32 243.838 160.158 242.46 158.761C241.1 157.364 238.901 156.665 235.861 156.665H232.831ZM291.803 153.72L292.114 166.521H290.953C290.406 163.311 289.056 160.734 286.903 158.789C284.77 156.826 282.457 155.844 279.965 155.844C278.039 155.844 276.51 156.363 275.377 157.401C274.263 158.421 273.706 159.601 273.706 160.941C273.706 161.791 273.904 162.546 274.301 163.207C274.848 164.094 275.726 164.972 276.935 165.841C277.822 166.464 279.87 167.568 283.08 169.154C287.574 171.363 290.604 173.45 292.171 175.413C293.719 177.377 294.493 179.623 294.493 182.153C294.493 185.363 293.238 188.129 290.727 190.451C288.234 192.755 285.062 193.906 281.211 193.906C280.003 193.906 278.86 193.784 277.784 193.538C276.708 193.293 275.358 192.83 273.734 192.15C272.828 191.773 272.082 191.584 271.497 191.584C271.006 191.584 270.487 191.773 269.939 192.15C269.392 192.528 268.948 193.104 268.608 193.878H267.56V179.378H268.608C269.439 183.456 271.034 186.571 273.394 188.724C275.773 190.857 278.332 191.924 281.069 191.924C283.184 191.924 284.864 191.348 286.11 190.196C287.375 189.045 288.008 187.704 288.008 186.175C288.008 185.269 287.762 184.391 287.271 183.541C286.799 182.691 286.073 181.889 285.091 181.134C284.109 180.36 282.372 179.359 279.88 178.132C276.387 176.414 273.876 174.951 272.347 173.742C270.817 172.534 269.637 171.184 268.807 169.692C267.995 168.201 267.589 166.558 267.589 164.765C267.589 161.706 268.712 159.101 270.959 156.948C273.206 154.796 276.038 153.72 279.455 153.72C280.701 153.72 281.909 153.871 283.08 154.173C283.967 154.399 285.044 154.824 286.309 155.447C287.592 156.051 288.489 156.354 288.999 156.354C289.49 156.354 289.877 156.202 290.16 155.9C290.443 155.598 290.708 154.871 290.953 153.72H291.803ZM323.304 191.952V193H303.225V191.952H304.499C305.613 191.952 306.51 191.754 307.19 191.357C307.681 191.093 308.058 190.64 308.322 189.998C308.53 189.545 308.634 188.355 308.634 186.43V161.168C308.634 159.204 308.53 157.977 308.322 157.486C308.115 156.995 307.69 156.571 307.048 156.212C306.425 155.834 305.575 155.646 304.499 155.646H303.225V154.598H323.304V155.646H322.029C320.916 155.646 320.019 155.844 319.339 156.24C318.848 156.505 318.461 156.958 318.178 157.6C317.97 158.053 317.866 159.242 317.866 161.168V186.43C317.866 188.393 317.97 189.62 318.178 190.111C318.404 190.602 318.829 191.036 319.452 191.414C320.094 191.773 320.953 191.952 322.029 191.952H323.304ZM366.473 154.598V164.991H365.454C364.849 162.593 364.179 160.875 363.443 159.837C362.707 158.78 361.696 157.939 360.413 157.316C359.695 156.977 358.44 156.807 356.646 156.807H353.786V186.43C353.786 188.393 353.889 189.62 354.097 190.111C354.324 190.602 354.749 191.036 355.372 191.414C356.014 191.773 356.882 191.952 357.977 191.952H359.251V193H339.144V191.952H340.418C341.532 191.952 342.429 191.754 343.109 191.357C343.6 191.093 343.987 190.64 344.27 189.998C344.478 189.545 344.582 188.355 344.582 186.43V156.807H341.806C339.22 156.807 337.341 157.354 336.17 158.449C334.528 159.979 333.489 162.159 333.055 164.991H331.979V154.598H366.473ZM415.023 154.598V155.646C413.758 155.815 412.786 156.184 412.106 156.75C411.162 157.543 409.671 159.705 407.632 163.235L399.305 177.141V186.43C399.305 188.412 399.409 189.649 399.617 190.14C399.825 190.612 400.231 191.036 400.835 191.414C401.458 191.773 402.279 191.952 403.299 191.952H405.451V193H383.899V191.952H385.91C387.043 191.952 387.94 191.754 388.6 191.357C389.091 191.093 389.478 190.64 389.761 189.998C389.969 189.545 390.073 188.355 390.073 186.43V178.727L381.039 162.272C379.245 159.025 377.98 157.118 377.244 156.552C376.508 155.966 375.526 155.664 374.299 155.646V154.598H392.707V155.646H391.885C390.772 155.646 389.988 155.806 389.535 156.127C389.101 156.448 388.884 156.788 388.884 157.146C388.884 157.826 389.639 159.535 391.149 162.272L398.088 174.988L404.998 163.405C406.716 160.573 407.575 158.695 407.575 157.77C407.575 157.26 407.33 156.835 406.839 156.495C406.197 156.023 405.017 155.74 403.299 155.646V154.598H415.023ZM102.105 238.952V240H82.0262V238.952H83.3006C84.4145 238.952 85.3113 238.754 85.991 238.357C86.4819 238.093 86.8595 237.64 87.1238 236.998C87.3315 236.545 87.4353 235.355 87.4353 233.43V208.168C87.4353 206.204 87.3315 204.977 87.1238 204.486C86.9161 203.995 86.4913 203.571 85.8494 203.212C85.2264 202.834 84.3768 202.646 83.3006 202.646H82.0262V201.598H102.105V202.646H100.831C99.7169 202.646 98.8201 202.844 98.1404 203.24C97.6495 203.505 97.2625 203.958 96.9793 204.6C96.7716 205.053 96.6678 206.242 96.6678 208.168V233.43C96.6678 235.393 96.7716 236.62 96.9793 237.111C97.2059 237.602 97.6307 238.036 98.2537 238.414C98.8956 238.773 99.7547 238.952 100.831 238.952H102.105ZM123.128 201.598L142.074 225.415V208.904C142.074 206.601 141.744 205.043 141.083 204.231C140.177 203.136 138.657 202.608 136.524 202.646V201.598H149.211V202.646C147.587 202.853 146.492 203.127 145.926 203.467C145.378 203.788 144.944 204.326 144.623 205.081C144.321 205.817 144.17 207.092 144.17 208.904V240.878H143.207L117.237 208.904V233.316C117.237 235.525 117.738 237.017 118.738 237.791C119.758 238.565 120.919 238.952 122.222 238.952H123.128V240H109.506V238.952C111.621 238.933 113.093 238.499 113.924 237.649C114.755 236.8 115.17 235.355 115.17 233.316V206.214L114.349 205.194C113.537 204.175 112.819 203.505 112.196 203.184C111.573 202.863 110.677 202.683 109.506 202.646V201.598H123.128ZM156.583 240V238.952H157.858C158.972 238.952 159.821 238.782 160.407 238.442C161.011 238.084 161.454 237.602 161.738 236.998C161.908 236.602 161.993 235.412 161.993 233.43V208.168C161.993 206.204 161.889 204.977 161.681 204.486C161.473 203.995 161.049 203.571 160.407 203.212C159.784 202.834 158.934 202.646 157.858 202.646H156.583V201.598H173.774C178.362 201.598 182.053 202.221 184.847 203.467C188.264 204.996 190.851 207.309 192.607 210.405C194.382 213.502 195.269 217.004 195.269 220.912C195.269 223.612 194.835 226.104 193.966 228.389C193.098 230.654 191.974 232.533 190.596 234.024C189.218 235.497 187.622 236.687 185.81 237.593C184.016 238.48 181.817 239.169 179.211 239.66C178.06 239.887 176.247 240 173.774 240H156.583ZM171.225 203.778V233.741C171.225 235.327 171.3 236.299 171.452 236.658C171.603 237.017 171.857 237.291 172.216 237.479C172.726 237.763 173.462 237.904 174.425 237.904C177.578 237.904 179.985 236.828 181.647 234.676C183.912 231.768 185.045 227.256 185.045 221.139C185.045 216.211 184.271 212.274 182.723 209.329C181.496 207.026 179.919 205.459 177.994 204.628C176.634 204.043 174.378 203.759 171.225 203.778ZM225.354 201.06C231.471 200.833 236.437 202.617 240.251 206.412C244.083 210.207 246 214.955 246 220.657C246 225.528 244.574 229.814 241.723 233.515C237.947 238.424 232.614 240.878 225.722 240.878C218.812 240.878 213.469 238.537 209.693 233.854C206.71 230.154 205.218 225.764 205.218 220.686C205.218 214.984 207.154 210.235 211.024 206.44C214.913 202.627 219.69 200.833 225.354 201.06ZM225.694 202.872C222.182 202.872 219.511 204.666 217.679 208.253C216.188 211.198 215.442 215.427 215.442 220.94C215.442 227.492 216.594 232.335 218.897 235.469C220.502 237.659 222.749 238.754 225.637 238.754C227.582 238.754 229.206 238.282 230.508 237.338C232.17 236.13 233.463 234.204 234.388 231.561C235.313 228.898 235.776 225.434 235.776 221.167C235.776 216.088 235.304 212.293 234.36 209.782C233.416 207.252 232.208 205.468 230.735 204.43C229.281 203.391 227.601 202.872 225.694 202.872ZM268.722 222.498V233.26C268.722 235.337 268.844 236.649 269.09 237.196C269.354 237.725 269.807 238.15 270.449 238.471C271.091 238.792 272.29 238.952 274.046 238.952V240H254.392V238.952C256.166 238.952 257.365 238.792 257.988 238.471C258.63 238.131 259.074 237.697 259.319 237.168C259.584 236.639 259.716 235.337 259.716 233.26V208.338C259.716 206.261 259.584 204.958 259.319 204.43C259.074 203.882 258.63 203.448 257.988 203.127C257.346 202.806 256.147 202.646 254.392 202.646V201.598H272.233C276.878 201.598 280.276 201.919 282.429 202.561C284.581 203.202 286.337 204.392 287.696 206.129C289.056 207.847 289.735 209.867 289.735 212.189C289.735 215.021 288.716 217.363 286.677 219.213C285.374 220.383 283.552 221.261 281.211 221.847L290.443 234.846C291.652 236.526 292.511 237.574 293.02 237.989C293.795 238.575 294.691 238.896 295.711 238.952V240H283.618L271.242 222.498H268.722ZM268.722 203.665V220.487H270.336C272.96 220.487 274.924 220.251 276.226 219.779C277.529 219.288 278.549 218.42 279.285 217.174C280.04 215.909 280.418 214.266 280.418 212.246C280.418 209.32 279.729 207.158 278.351 205.761C276.991 204.364 274.792 203.665 271.752 203.665H268.722ZM316.252 203.807V219.439H317.017C319.452 219.439 321.218 218.675 322.313 217.146C323.408 215.616 324.106 213.36 324.408 210.377H325.485V230.484H324.408C324.182 228.294 323.7 226.501 322.964 225.104C322.247 223.706 321.406 222.772 320.444 222.3C319.481 221.809 318.084 221.563 316.252 221.563V232.382C316.252 234.496 316.337 235.79 316.507 236.262C316.696 236.734 317.036 237.121 317.527 237.423C318.017 237.725 318.81 237.876 319.905 237.876H322.199C325.787 237.876 328.656 237.045 330.809 235.384C332.98 233.722 334.538 231.192 335.482 227.794H336.529L334.802 240H301.611V238.952H302.885C303.999 238.952 304.896 238.754 305.575 238.357C306.066 238.093 306.444 237.64 306.708 236.998C306.916 236.545 307.02 235.355 307.02 233.43V208.168C307.02 206.431 306.973 205.364 306.878 204.968C306.689 204.307 306.34 203.797 305.83 203.438C305.113 202.91 304.131 202.646 302.885 202.646H301.611V201.598H333.754V212.954H332.678C332.13 210.179 331.356 208.187 330.356 206.979C329.374 205.77 327.977 204.883 326.164 204.316C325.107 203.977 323.125 203.807 320.217 203.807H316.252Z" fill="white"/>
<line y1="137" x2="411.005" y2="137" stroke="white" stroke-width="4"/>
<line x1="6" y1="215" x2="78" y2="215" stroke="white" stroke-width="4"/>
<path d="M70.6133 24.4131L71.4189 57.5186H68.416C67 49.2178 63.5088 42.5527 57.9424 37.5234C52.4248 32.4453 46.4434 29.9062 39.998 29.9062C35.0176 29.9062 31.0625 31.249 28.1328 33.9346C25.252 36.5713 23.8115 39.623 23.8115 43.0898C23.8115 45.2871 24.3242 47.2402 25.3496 48.9492C26.7656 51.2441 29.0361 53.5146 32.1611 55.7607C34.4561 57.3721 39.7539 60.2285 48.0547 64.3301C59.6758 70.043 67.5127 75.4385 71.5654 80.5166C75.5693 85.5947 77.5713 91.4053 77.5713 97.9482C77.5713 106.249 74.3242 113.402 67.8301 119.408C61.3848 125.365 53.1816 128.344 43.2207 128.344C40.0957 128.344 37.1416 128.026 34.3584 127.392C31.5752 126.757 28.084 125.561 23.8848 123.803C21.541 122.826 19.6123 122.338 18.0986 122.338C16.8291 122.338 15.4863 122.826 14.0703 123.803C12.6543 124.779 11.5068 126.269 10.6279 128.271H7.91797V90.7705H10.6279C12.7764 101.317 16.9023 109.374 23.0059 114.94C29.1582 120.458 35.7744 123.217 42.8545 123.217C48.3232 123.217 52.6689 121.728 55.8916 118.749C59.1631 115.771 60.7988 112.304 60.7988 108.349C60.7988 106.005 60.1641 103.734 58.8945 101.537C57.6738 99.3398 55.7939 97.2646 53.2549 95.3115C50.7158 93.3096 46.2236 90.7217 39.7783 87.5479C30.7451 83.1045 24.251 79.3203 20.2959 76.1953C16.3408 73.0703 13.2891 69.5791 11.1406 65.7217C9.04102 61.8643 7.99121 57.6162 7.99121 52.9775C7.99121 45.0674 10.8965 38.3291 16.707 32.7627C22.5176 27.1963 29.8418 24.4131 38.6797 24.4131C41.9023 24.4131 45.0273 24.8037 48.0547 25.585C50.3496 26.1709 53.1328 27.2695 56.4043 28.8809C59.7246 30.4434 62.0439 31.2246 63.3623 31.2246C64.6318 31.2246 65.6328 30.834 66.3652 30.0527C67.0977 29.2715 67.7812 27.3916 68.416 24.4131H70.6133ZM146.053 97.7285H110.97L106.795 107.396C105.428 110.619 104.744 113.28 104.744 115.38C104.744 118.163 105.867 120.214 108.113 121.532C109.432 122.313 112.679 122.899 117.854 123.29V126H84.8223V123.29C88.3867 122.753 91.3164 121.288 93.6113 118.896C95.9062 116.454 98.7383 111.449 102.107 103.881L137.63 24.6328H139.021L174.837 106.078C178.255 113.793 181.062 118.651 183.26 120.653C184.92 122.167 187.264 123.046 190.291 123.29V126H142.244V123.29H144.222C148.079 123.29 150.789 122.753 152.352 121.679C153.426 120.897 153.963 119.774 153.963 118.31C153.963 117.431 153.816 116.527 153.523 115.6C153.426 115.16 152.693 113.329 151.326 110.106L146.053 97.7285ZM143.562 92.3086L128.768 58.1045L113.533 92.3086H143.562ZM295.54 24.4131V59.4229H292.83C289.559 49.8525 284.651 42.5771 278.108 37.5967C271.565 32.6162 264.412 30.126 256.648 30.126C249.227 30.126 243.05 32.2256 238.118 36.4248C233.187 40.5752 229.695 46.3857 227.645 53.8564C225.594 61.3271 224.568 68.9932 224.568 76.8545C224.568 86.376 225.691 94.7256 227.938 101.903C230.184 109.081 233.797 114.354 238.777 117.724C243.807 121.093 249.764 122.777 256.648 122.777C259.041 122.777 261.482 122.533 263.973 122.045C266.512 121.508 269.1 120.751 271.736 119.774V99.1201C271.736 95.2139 271.468 92.6992 270.931 91.5762C270.394 90.4043 269.271 89.3545 267.562 88.4268C265.901 87.499 263.875 87.0352 261.482 87.0352H258.919V84.3252H307.186V87.0352C303.523 87.2793 300.96 87.792 299.495 88.5732C298.079 89.3057 296.98 90.5508 296.199 92.3086C295.76 93.2363 295.54 95.5068 295.54 99.1201V119.774C289.192 122.606 282.576 124.73 275.691 126.146C268.855 127.611 261.751 128.344 254.378 128.344C244.954 128.344 237.117 127.074 230.867 124.535C224.666 121.947 219.173 118.578 214.388 114.428C209.651 110.229 205.94 105.517 203.255 100.292C199.837 93.5537 198.128 86.0098 198.128 77.6602C198.128 62.7188 203.377 50.0967 213.875 39.7939C224.373 29.4912 237.581 24.3398 253.499 24.3398C258.431 24.3398 262.874 24.7305 266.829 25.5117C268.978 25.9023 272.444 27.0254 277.229 28.8809C282.063 30.6875 284.92 31.5908 285.799 31.5908C287.166 31.5908 288.436 31.1025 289.607 30.126C290.779 29.1006 291.854 27.1963 292.83 24.4131H295.54ZM349.666 32.3965V72.8262H351.644C357.942 72.8262 362.508 70.8486 365.34 66.8936C368.172 62.9385 369.979 57.1035 370.76 49.3887H373.543V101.391H370.76C370.174 95.7266 368.929 91.0879 367.024 87.4746C365.169 83.8613 362.996 81.4443 360.506 80.2236C358.016 78.9541 354.402 78.3193 349.666 78.3193V106.298C349.666 111.767 349.886 115.111 350.325 116.332C350.813 117.553 351.692 118.554 352.962 119.335C354.231 120.116 356.282 120.507 359.114 120.507H365.047C374.324 120.507 381.746 118.358 387.312 114.062C392.928 109.765 396.956 103.222 399.397 94.4326H402.107L397.64 126H311.8V123.29H315.096C317.977 123.29 320.296 122.777 322.054 121.752C323.323 121.068 324.3 119.896 324.983 118.236C325.521 117.064 325.789 113.988 325.789 109.008V43.6758C325.789 39.1836 325.667 36.4248 325.423 35.3994C324.935 33.6904 324.031 32.3721 322.713 31.4443C320.857 30.0771 318.318 29.3936 315.096 29.3936H311.8V26.6836H394.93V56.0537H392.146C390.73 48.876 388.729 43.7246 386.141 40.5996C383.602 37.4746 379.988 35.1797 375.301 33.7148C372.566 32.8359 367.439 32.3965 359.92 32.3965H349.666Z" fill="white"/>
<path d="M70.6133 24.4131L71.4189 57.5186H68.416C67 49.2178 63.5088 42.5527 57.9424 37.5234C52.4248 32.4453 46.4434 29.9062 39.998 29.9062C35.0176 29.9062 31.0625 31.249 28.1328 33.9346C25.252 36.5713 23.8115 39.623 23.8115 43.0898C23.8115 45.2871 24.3242 47.2402 25.3496 48.9492C26.7656 51.2441 29.0361 53.5146 32.1611 55.7607C34.4561 57.3721 39.7539 60.2285 48.0547 64.3301C59.6758 70.043 67.5127 75.4385 71.5654 80.5166C75.5693 85.5947 77.5713 91.4053 77.5713 97.9482C77.5713 106.249 74.3242 113.402 67.8301 119.408C61.3848 125.365 53.1816 128.344 43.2207 128.344C40.0957 128.344 37.1416 128.026 34.3584 127.392C31.5752 126.757 28.084 125.561 23.8848 123.803C21.541 122.826 19.6123 122.338 18.0986 122.338C16.8291 122.338 15.4863 122.826 14.0703 123.803C12.6543 124.779 11.5068 126.269 10.6279 128.271H7.91797V90.7705H10.6279C12.7764 101.317 16.9023 109.374 23.0059 114.94C29.1582 120.458 35.7744 123.217 42.8545 123.217C48.3232 123.217 52.6689 121.728 55.8916 118.749C59.1631 115.771 60.7988 112.304 60.7988 108.349C60.7988 106.005 60.1641 103.734 58.8945 101.537C57.6738 99.3398 55.7939 97.2646 53.2549 95.3115C50.7158 93.3096 46.2236 90.7217 39.7783 87.5479C30.7451 83.1045 24.251 79.3203 20.2959 76.1953C16.3408 73.0703 13.2891 69.5791 11.1406 65.7217C9.04102 61.8643 7.99121 57.6162 7.99121 52.9775C7.99121 45.0674 10.8965 38.3291 16.707 32.7627C22.5176 27.1963 29.8418 24.4131 38.6797 24.4131C41.9023 24.4131 45.0273 24.8037 48.0547 25.585C50.3496 26.1709 53.1328 27.2695 56.4043 28.8809C59.7246 30.4434 62.0439 31.2246 63.3623 31.2246C64.6318 31.2246 65.6328 30.834 66.3652 30.0527C67.0977 29.2715 67.7812 27.3916 68.416 24.4131H70.6133ZM146.053 97.7285H110.97L106.795 107.396C105.428 110.619 104.744 113.28 104.744 115.38C104.744 118.163 105.867 120.214 108.113 121.532C109.432 122.313 112.679 122.899 117.854 123.29V126H84.8223V123.29C88.3867 122.753 91.3164 121.288 93.6113 118.896C95.9062 116.454 98.7383 111.449 102.107 103.881L137.63 24.6328H139.021L174.837 106.078C178.255 113.793 181.062 118.651 183.26 120.653C184.92 122.167 187.264 123.046 190.291 123.29V126H142.244V123.29H144.222C148.079 123.29 150.789 122.753 152.352 121.679C153.426 120.897 153.963 119.774 153.963 118.31C153.963 117.431 153.816 116.527 153.523 115.6C153.426 115.16 152.693 113.329 151.326 110.106L146.053 97.7285ZM143.562 92.3086L128.768 58.1045L113.533 92.3086H143.562ZM295.54 24.4131V59.4229H292.83C289.559 49.8525 284.651 42.5771 278.108 37.5967C271.565 32.6162 264.412 30.126 256.648 30.126C249.227 30.126 243.05 32.2256 238.118 36.4248C233.187 40.5752 229.695 46.3857 227.645 53.8564C225.594 61.3271 224.568 68.9932 224.568 76.8545C224.568 86.376 225.691 94.7256 227.938 101.903C230.184 109.081 233.797 114.354 238.777 117.724C243.807 121.093 249.764 122.777 256.648 122.777C259.041 122.777 261.482 122.533 263.973 122.045C266.512 121.508 269.1 120.751 271.736 119.774V99.1201C271.736 95.2139 271.468 92.6992 270.931 91.5762C270.394 90.4043 269.271 89.3545 267.562 88.4268C265.901 87.499 263.875 87.0352 261.482 87.0352H258.919V84.3252H307.186V87.0352C303.523 87.2793 300.96 87.792 299.495 88.5732C298.079 89.3057 296.98 90.5508 296.199 92.3086C295.76 93.2363 295.54 95.5068 295.54 99.1201V119.774C289.192 122.606 282.576 124.73 275.691 126.146C268.855 127.611 261.751 128.344 254.378 128.344C244.954 128.344 237.117 127.074 230.867 124.535C224.666 121.947 219.173 118.578 214.388 114.428C209.651 110.229 205.94 105.517 203.255 100.292C199.837 93.5537 198.128 86.0098 198.128 77.6602C198.128 62.7188 203.377 50.0967 213.875 39.7939C224.373 29.4912 237.581 24.3398 253.499 24.3398C258.431 24.3398 262.874 24.7305 266.829 25.5117C268.978 25.9023 272.444 27.0254 277.229 28.8809C282.063 30.6875 284.92 31.5908 285.799 31.5908C287.166 31.5908 288.436 31.1025 289.607 30.126C290.779 29.1006 291.854 27.1963 292.83 24.4131H295.54ZM349.666 32.3965V72.8262H351.644C357.942 72.8262 362.508 70.8486 365.34 66.8936C368.172 62.9385 369.979 57.1035 370.76 49.3887H373.543V101.391H370.76C370.174 95.7266 368.929 91.0879 367.024 87.4746C365.169 83.8613 362.996 81.4443 360.506 80.2236C358.016 78.9541 354.402 78.3193 349.666 78.3193V106.298C349.666 111.767 349.886 115.111 350.325 116.332C350.813 117.553 351.692 118.554 352.962 119.335C354.231 120.116 356.282 120.507 359.114 120.507H365.047C374.324 120.507 381.746 118.358 387.312 114.062C392.928 109.765 396.956 103.222 399.397 94.4326H402.107L397.64 126H311.8V123.29H315.096C317.977 123.29 320.296 122.777 322.054 121.752C323.323 121.068 324.3 119.896 324.983 118.236C325.521 117.064 325.789 113.988 325.789 109.008V43.6758C325.789 39.1836 325.667 36.4248 325.423 35.3994C324.935 33.6904 324.031 32.3721 322.713 31.4443C320.857 30.0771 318.318 29.3936 315.096 29.3936H311.8V26.6836H394.93V56.0537H392.146C390.73 48.876 388.729 43.7246 386.141 40.5996C383.602 37.4746 379.988 35.1797 375.301 33.7148C372.566 32.8359 367.439 32.3965 359.92 32.3965H349.666Z" fill="white"/>
<path d="M70.6133 24.4131L71.4189 57.5186H68.416C67 49.2178 63.5088 42.5527 57.9424 37.5234C52.4248 32.4453 46.4434 29.9062 39.998 29.9062C35.0176 29.9062 31.0625 31.249 28.1328 33.9346C25.252 36.5713 23.8115 39.623 23.8115 43.0898C23.8115 45.2871 24.3242 47.2402 25.3496 48.9492C26.7656 51.2441 29.0361 53.5146 32.1611 55.7607C34.4561 57.3721 39.7539 60.2285 48.0547 64.3301C59.6758 70.043 67.5127 75.4385 71.5654 80.5166C75.5693 85.5947 77.5713 91.4053 77.5713 97.9482C77.5713 106.249 74.3242 113.402 67.8301 119.408C61.3848 125.365 53.1816 128.344 43.2207 128.344C40.0957 128.344 37.1416 128.026 34.3584 127.392C31.5752 126.757 28.084 125.561 23.8848 123.803C21.541 122.826 19.6123 122.338 18.0986 122.338C16.8291 122.338 15.4863 122.826 14.0703 123.803C12.6543 124.779 11.5068 126.269 10.6279 128.271H7.91797V90.7705H10.6279C12.7764 101.317 16.9023 109.374 23.0059 114.94C29.1582 120.458 35.7744 123.217 42.8545 123.217C48.3232 123.217 52.6689 121.728 55.8916 118.749C59.1631 115.771 60.7988 112.304 60.7988 108.349C60.7988 106.005 60.1641 103.734 58.8945 101.537C57.6738 99.3398 55.7939 97.2646 53.2549 95.3115C50.7158 93.3096 46.2236 90.7217 39.7783 87.5479C30.7451 83.1045 24.251 79.3203 20.2959 76.1953C16.3408 73.0703 13.2891 69.5791 11.1406 65.7217C9.04102 61.8643 7.99121 57.6162 7.99121 52.9775C7.99121 45.0674 10.8965 38.3291 16.707 32.7627C22.5176 27.1963 29.8418 24.4131 38.6797 24.4131C41.9023 24.4131 45.0273 24.8037 48.0547 25.585C50.3496 26.1709 53.1328 27.2695 56.4043 28.8809C59.7246 30.4434 62.0439 31.2246 63.3623 31.2246C64.6318 31.2246 65.6328 30.834 66.3652 30.0527C67.0977 29.2715 67.7812 27.3916 68.416 24.4131H70.6133ZM146.053 97.7285H110.97L106.795 107.396C105.428 110.619 104.744 113.28 104.744 115.38C104.744 118.163 105.867 120.214 108.113 121.532C109.432 122.313 112.679 122.899 117.854 123.29V126H84.8223V123.29C88.3867 122.753 91.3164 121.288 93.6113 118.896C95.9062 116.454 98.7383 111.449 102.107 103.881L137.63 24.6328H139.021L174.837 106.078C178.255 113.793 181.062 118.651 183.26 120.653C184.92 122.167 187.264 123.046 190.291 123.29V126H142.244V123.29H144.222C148.079 123.29 150.789 122.753 152.352 121.679C153.426 120.897 153.963 119.774 153.963 118.31C153.963 117.431 153.816 116.527 153.523 115.6C153.426 115.16 152.693 113.329 151.326 110.106L146.053 97.7285ZM143.562 92.3086L128.768 58.1045L113.533 92.3086H143.562ZM295.54 24.4131V59.4229H292.83C289.559 49.8525 284.651 42.5771 278.108 37.5967C271.565 32.6162 264.412 30.126 256.648 30.126C249.227 30.126 243.05 32.2256 238.118 36.4248C233.187 40.5752 229.695 46.3857 227.645 53.8564C225.594 61.3271 224.568 68.9932 224.568 76.8545C224.568 86.376 225.691 94.7256 227.938 101.903C230.184 109.081 233.797 114.354 238.777 117.724C243.807 121.093 249.764 122.777 256.648 122.777C259.041 122.777 261.482 122.533 263.973 122.045C266.512 121.508 269.1 120.751 271.736 119.774V99.1201C271.736 95.2139 271.468 92.6992 270.931 91.5762C270.394 90.4043 269.271 89.3545 267.562 88.4268C265.901 87.499 263.875 87.0352 261.482 87.0352H258.919V84.3252H307.186V87.0352C303.523 87.2793 300.96 87.792 299.495 88.5732C298.079 89.3057 296.98 90.5508 296.199 92.3086C295.76 93.2363 295.54 95.5068 295.54 99.1201V119.774C289.192 122.606 282.576 124.73 275.691 126.146C268.855 127.611 261.751 128.344 254.378 128.344C244.954 128.344 237.117 127.074 230.867 124.535C224.666 121.947 219.173 118.578 214.388 114.428C209.651 110.229 205.94 105.517 203.255 100.292C199.837 93.5537 198.128 86.0098 198.128 77.6602C198.128 62.7188 203.377 50.0967 213.875 39.7939C224.373 29.4912 237.581 24.3398 253.499 24.3398C258.431 24.3398 262.874 24.7305 266.829 25.5117C268.978 25.9023 272.444 27.0254 277.229 28.8809C282.063 30.6875 284.92 31.5908 285.799 31.5908C287.166 31.5908 288.436 31.1025 289.607 30.126C290.779 29.1006 291.854 27.1963 292.83 24.4131H295.54ZM349.666 32.3965V72.8262H351.644C357.942 72.8262 362.508 70.8486 365.34 66.8936C368.172 62.9385 369.979 57.1035 370.76 49.3887H373.543V101.391H370.76C370.174 95.7266 368.929 91.0879 367.024 87.4746C365.169 83.8613 362.996 81.4443 360.506 80.2236C358.016 78.9541 354.402 78.3193 349.666 78.3193V106.298C349.666 111.767 349.886 115.111 350.325 116.332C350.813 117.553 351.692 118.554 352.962 119.335C354.231 120.116 356.282 120.507 359.114 120.507H365.047C374.324 120.507 381.746 118.358 387.312 114.062C392.928 109.765 396.956 103.222 399.397 94.4326H402.107L397.64 126H311.8V123.29H315.096C317.977 123.29 320.296 122.777 322.054 121.752C323.323 121.068 324.3 119.896 324.983 118.236C325.521 117.064 325.789 113.988 325.789 109.008V43.6758C325.789 39.1836 325.667 36.4248 325.423 35.3994C324.935 33.6904 324.031 32.3721 322.713 31.4443C320.857 30.0771 318.318 29.3936 315.096 29.3936H311.8V26.6836H394.93V56.0537H392.146C390.73 48.876 388.729 43.7246 386.141 40.5996C383.602 37.4746 379.988 35.1797 375.301 33.7148C372.566 32.8359 367.439 32.3965 359.92 32.3965H349.666Z" fill="white"/>
</svg>
