<svg width="32" height="32" viewBox="0 0 32 32" fill="none" xmlns="http://www.w3.org/2000/svg">
<g clip-path="url(#clip0_469_309)">
<path d="M32 0H0V32H32V0Z" fill="black"/>
<path d="M26.6946 19.5124C26.6754 19.491 26.6706 19.3768 26.6754 19.2517C26.6898 19.0338 26.685 19.0303 26.5597 19.0196C26.4875 19.0124 26.4297 18.9838 26.4297 18.9553C26.4297 18.916 26.5115 18.9053 26.7909 18.9053C27.0798 18.9053 27.1521 18.916 27.1521 18.9589C27.1521 18.9946 27.1039 19.0124 27.0076 19.0124H26.8631V19.2803C26.8631 19.491 26.8487 19.5482 26.7957 19.5482C26.7571 19.5482 26.709 19.5304 26.6946 19.5124Z" fill="white"/>
<path d="M27.8122 19.5267C27.793 19.5124 27.7786 19.4482 27.7786 19.3802C27.7786 19.2695 27.769 19.2624 27.6101 19.2624C27.4512 19.2624 27.4416 19.2695 27.4416 19.3874C27.4416 19.4874 27.4223 19.5123 27.3453 19.5123C27.2586 19.5123 27.249 19.4874 27.249 19.2088C27.249 18.9302 27.2586 18.9053 27.3453 18.9053C27.4223 18.9053 27.4416 18.9302 27.4416 19.0303C27.4416 19.1481 27.4512 19.1552 27.6101 19.1552C27.769 19.1552 27.7786 19.1481 27.7786 19.0303C27.7786 18.9267 27.7978 18.9053 27.8749 18.9053C27.9711 18.9053 27.976 18.9231 27.9615 19.2159C27.9471 19.4981 27.9037 19.5945 27.8122 19.5266V19.5267Z" fill="white"/>
<path d="M28.356 19.5231C28.1827 19.4767 28.1152 19.3946 28.1152 19.2267C28.1152 19.0196 28.2549 18.9053 28.5053 18.9053C28.8038 18.9053 28.9771 19.1481 28.8568 19.3874C28.799 19.4945 28.5246 19.5695 28.356 19.523V19.5231ZM28.693 19.3124C28.7845 19.1338 28.5533 18.9409 28.38 19.0481C28.2934 19.1017 28.2837 19.3016 28.3656 19.3624C28.4715 19.4409 28.6449 19.4124 28.693 19.3124Z" fill="white"/>
<path d="M29.0303 19.2088C29.0303 18.9338 29.0399 18.9053 29.1217 18.9053C29.1796 18.9053 29.271 18.9731 29.3721 19.091L29.5358 19.2802L29.5502 19.091C29.5647 18.9338 29.5791 18.9053 29.6609 18.9053C29.7428 18.9053 29.7524 18.9302 29.7524 19.2088C29.7524 19.5017 29.7476 19.5123 29.6465 19.5123C29.5647 19.5088 29.4924 19.4588 29.3817 19.3231L29.2276 19.1374L29.2228 19.3267C29.2228 19.4874 29.2084 19.5123 29.1265 19.5123C29.0399 19.5123 29.0303 19.4874 29.0303 19.2088Z" fill="white"/>
<path d="M26.7718 17.6296C26.7477 17.5903 26.7091 17.4082 26.6899 17.2261L26.6562 16.8975L26.7621 16.9403C26.9981 17.0332 27.0895 17.5046 26.897 17.6439C26.8296 17.6939 26.82 17.6903 26.7718 17.6296Z" fill="white"/>
<path d="M28.0671 14.394C28.0671 14.269 28.4139 13.4047 28.6401 12.9726C28.746 12.769 28.9868 12.3118 29.1746 11.9618C29.3575 11.6083 29.5116 11.3047 29.5116 11.2868C29.5116 11.2654 29.2323 11.2619 28.799 11.2797C28.0622 11.3047 27.7107 11.2833 27.7444 11.2119C27.7684 11.1547 27.9659 11.1298 28.9819 11.0511C30.2002 10.9547 30.152 10.9119 29.7283 11.7119C29.189 12.7226 28.4041 14.1297 28.2693 14.3297C28.1682 14.4833 28.067 14.5154 28.067 14.394H28.0671Z" fill="white"/>
<path d="M4.00993 19.9227L3.87988 19.8262L3.91354 19.3191C3.95212 18.7726 3.99058 18.562 4.06282 18.5727C4.11102 18.5798 4.14948 18.8226 4.2121 19.4512L4.24094 19.7618H4.78987C5.09324 19.7618 5.3388 19.7761 5.3388 19.794C5.3388 19.8369 5.10766 19.8905 4.71283 19.9405C4.53951 19.9619 4.34203 19.9869 4.26979 19.9976C4.16871 20.0119 4.10609 19.9941 4.00981 19.9227H4.00993Z" fill="white"/>
<path d="M22.3369 19.2303C22.3369 18.9303 22.3417 18.9053 22.4332 18.9053C22.5102 18.9053 22.5295 18.9302 22.5295 19.0303C22.5295 19.1481 22.5391 19.1552 22.698 19.1552C22.8569 19.1552 22.8665 19.1481 22.8665 19.0303C22.8665 18.9267 22.8857 18.9053 22.9628 18.9053C23.059 18.9053 23.0638 18.9231 23.0494 19.2196C23.0398 19.466 23.0206 19.5303 22.9628 19.5303C22.9146 19.5303 22.8857 19.4874 22.8761 19.3982C22.8617 19.2696 22.8521 19.2625 22.698 19.2625C22.5439 19.2625 22.5343 19.2696 22.5198 19.3946C22.5102 19.491 22.4813 19.5338 22.4236 19.5411C22.3465 19.5518 22.3369 19.5197 22.3369 19.2304V19.2303Z" fill="white"/>
<path d="M23.1901 19.5267C23.1613 19.5017 23.1661 19.4803 23.3394 19.1481C23.4405 18.9481 23.4791 18.9053 23.5705 18.9053C23.662 18.9053 23.6958 18.9446 23.8017 19.1839C23.8691 19.3339 23.9269 19.4803 23.9269 19.5053C23.9269 19.5767 23.7776 19.5553 23.7488 19.4767C23.7296 19.4195 23.6814 19.4053 23.5417 19.4053C23.402 19.4053 23.3539 19.4195 23.3346 19.4767C23.3106 19.5481 23.2479 19.5696 23.1901 19.5267ZM23.638 19.2196C23.638 19.1518 23.5561 19.0696 23.5321 19.1053C23.4502 19.216 23.455 19.2625 23.5417 19.2625C23.5947 19.2625 23.638 19.2411 23.638 19.2196Z" fill="white"/>
<path d="M24.2392 19.5053C24.0803 19.441 24.0225 19.3624 24.0225 19.2089C24.0225 19.1017 24.0513 19.041 24.1332 18.9839C24.3258 18.8518 24.7447 18.9054 24.7447 19.0624C24.7447 19.1338 24.634 19.1374 24.552 19.066C24.4172 18.9446 24.215 19.0302 24.215 19.2089C24.215 19.391 24.4221 19.4732 24.5858 19.3518C24.6629 19.2947 24.7447 19.3089 24.7447 19.3804C24.7447 19.4304 24.4992 19.5483 24.3979 19.5483C24.3643 19.5483 24.2921 19.5269 24.239 19.5054L24.2392 19.5053Z" fill="white"/>
<path d="M24.9233 19.5231C24.9041 19.5124 24.8896 19.366 24.8896 19.2017C24.8896 18.9302 24.8993 18.9053 24.9859 18.9053C25.063 18.9053 25.0822 18.9302 25.0822 19.041L25.087 19.1731L25.2315 19.041C25.3133 18.966 25.4242 18.9053 25.4722 18.9053C25.5975 18.9053 25.5879 18.9482 25.424 19.0624L25.2844 19.1625L25.4481 19.3339C25.5347 19.4268 25.5974 19.5124 25.5781 19.5231C25.5107 19.5767 25.4144 19.541 25.3133 19.4231C25.1689 19.2624 25.0822 19.2624 25.0822 19.4231C25.0822 19.541 25.0052 19.5874 24.9233 19.5231Z" fill="white"/>
<path d="M25.6886 19.516C25.6741 19.5017 25.7126 19.3839 25.78 19.2588C25.8426 19.1338 25.9053 19.0016 25.9197 18.9695C25.9341 18.9302 25.9919 18.9053 26.0546 18.9053C26.1508 18.9053 26.1846 18.9446 26.3049 19.191C26.4734 19.5445 26.4686 19.5267 26.3723 19.541C26.329 19.5481 26.2809 19.5231 26.2616 19.4803C26.2183 19.3731 25.8764 19.3731 25.8378 19.4767C25.8138 19.5517 25.732 19.5731 25.6886 19.516ZM26.1364 19.1839C26.1076 19.1374 26.0738 19.0981 26.069 19.091C26.0642 19.0874 26.0353 19.1231 26.0064 19.1731C25.9533 19.2552 25.9582 19.2624 26.0738 19.2624C26.1797 19.2624 26.1894 19.2553 26.1364 19.1839Z" fill="white"/>
<path d="M4.56911 19.1799C4.56911 18.9656 4.58834 18.8264 4.63173 18.7942C4.66058 18.762 5.13258 18.4585 5.6767 18.112C6.82757 17.3835 7.09235 17.1799 7.1742 16.9835C7.32829 16.5942 6.97672 16.2978 6.41337 16.3442C6.11962 16.3692 5.96072 16.4656 5.84522 16.6835L5.74894 16.8692H5.15181H4.55469L4.58834 16.6835C4.66539 16.2192 5.08919 15.8442 5.70062 15.6943C7.25113 15.3192 8.71017 15.9728 8.46942 16.9407C8.36353 17.3693 8.036 17.6693 6.88033 18.405C6.62996 18.5657 6.41806 18.7121 6.40844 18.73C6.39883 18.7478 6.83225 18.7622 7.47745 18.7622H8.56569V19.1372V19.5122H6.56734H4.56899V19.1801L4.56911 19.1799Z" fill="white"/>
<path d="M10.6888 19.4548C9.80769 19.2798 9.06128 18.7262 8.83014 18.0798C8.74348 17.837 8.73868 17.3012 8.82534 17.0655C9.01801 16.5155 9.47535 16.0905 10.1159 15.8477C10.7034 15.6263 10.7997 15.6191 13.3035 15.6191C15.8124 15.6191 15.87 15.6227 16.4768 15.8584C17.0595 16.087 17.6036 16.6226 17.7577 17.1191C17.8251 17.3298 17.8251 17.7476 17.7577 17.9833C17.565 18.669 16.8284 19.2512 15.8894 19.4548C15.5186 19.5369 11.0934 19.5369 10.6888 19.4548ZM15.6053 18.5476C15.9423 18.4762 16.2312 18.2977 16.4046 18.0476C16.5586 17.8297 16.5683 17.7977 16.549 17.5298C16.5346 17.3619 16.4912 17.1905 16.4431 17.1155C16.3372 16.9477 16.0579 16.7405 15.8124 16.6441C15.6246 16.5656 15.5812 16.5656 13.2843 16.5656H10.9489L10.6938 16.6692C10.2171 16.8656 10.01 17.1406 10.01 17.5727C10.01 17.9085 10.1062 18.087 10.3952 18.2942C10.79 18.5763 10.8045 18.5799 13.2603 18.5799C14.5941 18.5835 15.4946 18.5692 15.6053 18.5477V18.5476Z" fill="white"/>
<path d="M11.4957 18.0109C11.38 17.9251 11.4378 17.7788 11.6834 17.5216C11.8183 17.3787 11.9145 17.2537 11.9001 17.243C11.8905 17.2323 11.6449 17.3395 11.3608 17.4751C10.8551 17.7215 10.7637 17.7466 10.7637 17.643C10.7637 17.5323 11.6834 17.0466 12.1697 16.8966C12.3382 16.843 12.3526 16.843 12.4201 16.9144C12.5067 17.0073 12.4731 17.0858 12.2178 17.368C11.9433 17.6715 11.9433 17.6644 12.0781 17.6287C12.1407 17.6109 12.3044 17.5466 12.4345 17.4858C12.7715 17.3322 12.945 17.3108 13.0412 17.4109C13.099 17.4751 13.1423 17.4858 13.2483 17.468C13.3446 17.4502 13.4024 17.4609 13.4891 17.5216L13.5998 17.6001L13.8983 17.5001C14.1631 17.4108 14.2354 17.4036 14.5243 17.4251C14.8181 17.443 14.8951 17.4358 15.2177 17.3394C15.627 17.218 15.7618 17.2073 15.8052 17.2894C15.8534 17.3787 15.6029 17.5358 15.2611 17.6251C14.9914 17.6929 14.8903 17.7036 14.5773 17.6822C14.2257 17.6608 14.2017 17.6644 13.8887 17.7858C13.5179 17.9287 13.3446 17.943 13.2676 17.8429C13.2242 17.7751 13.2049 17.7751 13.0508 17.8251C12.8197 17.8965 12.656 17.8894 12.5934 17.8037C12.5452 17.7395 12.526 17.743 12.1023 17.8931C11.6256 18.068 11.5822 18.0752 11.4955 18.0109H11.4957Z" fill="white"/>
<path d="M17.8113 19.1655C17.8113 18.8227 17.8113 18.812 17.951 18.7262C19.044 18.0298 20.1708 17.2834 20.2527 17.2012C20.5368 16.9084 20.4742 16.5226 20.1178 16.3834C19.9445 16.3191 19.5785 16.3191 19.4004 16.387C19.2175 16.4584 19.073 16.6013 19.0344 16.7476L19.0056 16.8691H18.4036H17.7969L17.8257 16.7119C17.9364 16.1226 18.4517 15.7333 19.2751 15.6226C20.3104 15.4797 21.1868 15.7298 21.5769 16.269C21.6683 16.3976 21.6876 16.4762 21.6876 16.7619C21.6876 17.0654 21.6731 17.1226 21.5479 17.2976C21.3794 17.5368 20.999 17.8332 20.2333 18.3226C19.9059 18.5297 19.641 18.7119 19.641 18.7225C19.641 18.7332 20.1177 18.7404 20.7004 18.7332L21.7598 18.7225V19.1154V19.5118H19.7855H17.8112V19.1654L17.8113 19.1655Z" fill="white"/>
<path d="M23.5217 18.5984C22.7561 18.4735 22.2938 18.1484 22.1205 17.6128C21.9424 17.0485 22.1301 16.3735 22.5684 16.0235C23.0836 15.6128 24.1478 15.4663 24.9471 15.6913C25.2601 15.7771 25.6261 16.0199 25.7368 16.2092C25.8669 16.4378 25.8621 16.4413 25.289 16.4413H24.7737L24.61 16.327C24.4607 16.2163 24.4319 16.2092 24.1043 16.2092C23.8202 16.2092 23.7287 16.2234 23.6035 16.2913C23.4398 16.377 23.2761 16.5984 23.2279 16.8091L23.1942 16.9412L23.4398 16.8163C23.7335 16.6734 23.9261 16.6377 24.3835 16.6413C24.8121 16.6448 25.0625 16.6984 25.3515 16.8449C25.9582 17.1448 26.0449 17.8627 25.52 18.2556C25.284 18.4306 24.9855 18.5449 24.6195 18.602C24.2102 18.6663 23.9501 18.6663 23.5216 18.5984H23.5217ZM24.4655 17.9948C24.8893 17.7841 24.7929 17.3341 24.297 17.1949C23.854 17.0699 23.3484 17.2984 23.3484 17.6198C23.3484 17.9948 24.0178 18.2198 24.4656 17.9948H24.4655Z" fill="white"/>
<path d="M26.0447 18.2121C26.0447 18.205 26.0784 18.0872 26.1218 17.9514C26.2229 17.6371 26.1892 17.3407 26.0255 17.0693C25.8762 16.8193 25.8714 16.7979 25.9869 16.7979C26.0928 16.7979 26.2373 16.9086 26.3625 17.0836C26.4974 17.2728 26.4926 17.8693 26.3529 18.0657C26.2903 18.155 26.2132 18.2121 26.1506 18.2193C26.0928 18.2264 26.0447 18.2228 26.0447 18.2121Z" fill="white"/>
<path d="M4.13536 16.5764C4.13536 16.4728 4.18837 16.2764 4.25099 16.1442C4.3088 16.0121 4.34727 15.8978 4.33284 15.8907C4.31842 15.8835 4.18356 15.8514 4.03428 15.8193C3.64425 15.7372 3.33607 15.5014 3.50939 15.4228C3.53824 15.4086 3.66829 15.4478 3.79834 15.5122C3.92358 15.5729 4.15952 15.6586 4.31361 15.705C4.47732 15.7514 4.59775 15.8086 4.60737 15.8442C4.61698 15.8764 4.54955 16.0443 4.45809 16.2157C4.36662 16.3871 4.27515 16.5835 4.2558 16.6479C4.2076 16.8264 4.13536 16.7836 4.13536 16.5765V16.5764Z" fill="white"/>
<path d="M4.1835 15.5046C3.72604 15.3367 3.283 14.8796 3.45644 14.7511C3.50464 14.7189 3.5383 14.7297 3.62015 14.8153C3.82724 15.0296 4.16427 15.276 4.41463 15.3939C4.54949 15.4581 4.665 15.5296 4.665 15.5475C4.665 15.6082 4.40502 15.5868 4.1835 15.5046Z" fill="white"/>
<path d="M5.04528 15.3198C4.26041 15.152 3.79333 14.7198 3.71148 14.0985C3.69225 13.9413 3.68263 13.3056 3.69225 12.6806L3.70186 11.5449L4.29418 11.5556L4.88169 11.5663L4.90573 12.8877C4.92977 14.202 4.92977 14.2091 5.04059 14.3269C5.18507 14.477 5.37762 14.5484 5.63772 14.5484C5.91224 14.5484 6.1578 14.4519 6.27811 14.2984C6.36958 14.1806 6.37439 14.1056 6.38881 12.8592L6.40323 11.5449L6.99074 11.5556L7.57826 11.5663L7.58787 12.5842C7.60229 13.8949 7.55903 14.3663 7.3952 14.6306C7.2363 14.8878 6.92812 15.1163 6.56213 15.2449C6.31177 15.3342 6.21537 15.3485 5.77245 15.3592C5.45947 15.3627 5.18014 15.3485 5.0454 15.3198H5.04528Z" fill="white"/>
<path d="M7.87675 15.3085C7.86233 15.2728 7.86233 15.0513 7.86713 14.8156C7.87194 14.5799 7.88156 13.7478 7.88636 12.9693L7.89117 11.5479H8.98903C10.1687 11.5479 10.4288 11.5765 10.9055 11.7442C11.4256 11.9335 11.8397 12.3406 12.0178 12.8442C12.1237 13.1442 12.1189 13.7763 12.013 14.0799C11.8349 14.5692 11.4785 14.9192 10.9392 15.1263C10.4239 15.3263 10.0725 15.3691 8.90717 15.3691C7.98745 15.3691 7.89598 15.362 7.87675 15.3084V15.3085ZM10.1303 14.4978C10.5251 14.3728 10.7418 14.1407 10.8285 13.7407C10.9199 13.3193 10.8141 12.8765 10.5588 12.6301C10.3517 12.4265 10.1013 12.3586 9.54276 12.3408L9.04684 12.3265V13.4587V14.5944L9.49469 14.5765C9.74986 14.5659 10.0196 14.5337 10.1303 14.498V14.4978Z" fill="white"/>
<path d="M12.2734 13.4556V11.5449L13.588 11.5556C15.0663 11.5734 15.1819 11.5878 15.5671 11.8378C16.1305 12.2056 16.092 12.9521 15.4901 13.2485L15.2638 13.3628L15.4564 13.4235C15.9043 13.5735 16.1546 13.9413 16.1162 14.3842C16.0921 14.6735 15.9765 14.8663 15.731 15.0341C15.3265 15.3198 14.9845 15.3699 13.4822 15.3699H12.2736V13.4556H12.2734ZM14.7341 14.527C14.917 14.3913 14.9652 14.1913 14.8593 14.0056C14.7486 13.8055 14.5607 13.7521 13.9492 13.7341L13.4291 13.7199V14.1913V14.6627L14.007 14.652C14.5752 14.6377 14.5849 14.6377 14.7341 14.527ZM14.4643 13.0306C14.6666 12.9592 14.7533 12.827 14.7437 12.6235C14.7389 12.4914 14.71 12.4414 14.5896 12.3627C14.4451 12.2663 14.4163 12.2627 13.9346 12.2627H13.429V12.6734V13.0841H13.8672C14.161 13.0841 14.3583 13.0663 14.4643 13.0305V13.0306Z" fill="white"/>
<path d="M16.2697 13.4591V11.5485H16.8476H17.4254L17.4351 12.3092L17.4495 13.0663L18.3066 13.077L19.1589 13.0841V12.3163V11.5485H19.7608H20.3628L20.3724 13.4306L20.3868 15.3163L21.3065 13.4413L22.2262 11.5663L22.8618 11.5556L23.4926 11.5449L23.5841 11.6985C23.7286 11.9557 25.4187 15.3163 25.4187 15.352C25.4187 15.3627 25.1442 15.3663 24.8072 15.3627L24.2004 15.352L24.0464 15.0127L23.8923 14.6735L22.8859 14.6628L21.8795 14.6556L21.711 15.0127L21.5473 15.3699H20.353H19.1588V14.6021V13.8342H18.292H17.4205L17.4253 14.5593C17.4253 14.9557 17.4301 15.3021 17.4253 15.3271C17.4253 15.3592 17.276 15.3699 16.8474 15.3699H16.2695V13.4593L16.2697 13.4591ZM23.2325 13.2663C23.0448 12.8556 22.8809 12.5235 22.8713 12.5342C22.8569 12.5449 22.202 13.9698 22.1923 14.0056C22.1923 14.0091 22.5053 14.0127 22.8858 14.0127H23.5743L23.2325 13.2663Z" fill="white"/>
<path d="M25.1921 14.1658C24.8647 13.5015 24.4505 12.6551 24.2628 12.2801C24.0799 11.9086 23.9258 11.5873 23.9258 11.573C23.9258 11.5587 24.2099 11.5516 24.5614 11.5552L25.197 11.5659L25.8229 12.948C26.1697 13.7086 26.4633 14.3194 26.4779 14.3051C26.4971 14.2908 26.6753 13.8944 26.8775 13.423C27.0798 12.9516 27.3494 12.3409 27.4746 12.0659L27.7058 11.5659L28.3221 11.5552C28.9819 11.5445 28.9915 11.548 28.8855 11.7337C28.8614 11.7802 28.6977 12.1123 28.5195 12.4766C28.2498 13.0409 27.9561 13.648 27.2579 15.0837L27.1231 15.3516L26.4537 15.3623L25.7795 15.3694L25.192 14.1659L25.1921 14.1658Z" fill="white"/>
<path d="M3.24447 13.5119C3.20108 13.4619 3.13858 12.9941 3.0518 12.0763C2.96514 11.2084 2.96994 11.1727 3.20108 11.0584C3.30216 11.012 3.40337 11.0048 3.86083 11.0227C4.41456 11.0476 5.03573 11.1298 5.11277 11.1869C5.23321 11.2763 5.06457 11.2977 4.2267 11.2977H3.35998L3.39363 12.1477C3.43702 13.212 3.38401 13.6798 3.24435 13.5119H3.24447Z" fill="white"/>
</g>
<defs>
<clipPath id="clip0_469_309">
<rect width="32" height="32" fill="white"/>
</clipPath>
</defs>
</svg>
